<?xml version="1.0" standalone="no"?>
<svg  version="1.1"
 baseProfile="full"
viewBox="-80.0016 -67.2339 272.96 134.468" width="900" height="500" style="stroke: black; fill: none; stroke-width: .2;"
xmlns="http://www.w3.org/2000/svg"
xmlns:xlink="http://www.w3.org/1999/xlink"
xmlns:ev="http://www.w3.org/2001/xml-events">
<line x1="-69" y1="0" x2="182" y2="0" style="stroke-dasharray: 3, 1, 1, 1; stroke: blue;"  />
<line x1="-69" y1="62" x2="182" y2="62" />
<g style="font-size: 4.48226px; text-anchor: middle;">
<line x1="-60.375" y1="62" x2="-60.375" y2="60.4312" />
<text x="-60.375" y="66.4823" style="fill: black;" >-60</text>
<line x1="-51.75" y1="62" x2="-51.75" y2="60.4312" />
<text x="-51.75" y="66.4823" style="fill: black;" >-52</text>
<line x1="-43.125" y1="62" x2="-43.125" y2="60.4312" />
<text x="-43.125" y="66.4823" style="fill: black;" >-43</text>
<line x1="-34.5" y1="62" x2="-34.5" y2="60.4312" />
<text x="-34.5" y="66.4823" style="fill: black;" >-35</text>
<line x1="-25.875" y1="62" x2="-25.875" y2="60.4312" />
<text x="-25.875" y="66.4823" style="fill: black;" >-26</text>
<line x1="-17.25" y1="62" x2="-17.25" y2="60.4312" />
<text x="-17.25" y="66.4823" style="fill: black;" >-17</text>
<line x1="-8.625" y1="62" x2="-8.625" y2="60.4312" />
<text x="-8.625" y="66.4823" style="fill: black;" >-9</text>
<line x1="0" y1="62" x2="0" y2="60.4312" />
<text x="0" y="66.4823" style="fill: black;" >0</text>
<line x1="8.625" y1="62" x2="8.625" y2="60.4312" />
<text x="8.625" y="66.4823" style="fill: black;" >9</text>
<line x1="17.25" y1="62" x2="17.25" y2="60.4312" />
<text x="17.25" y="66.4823" style="fill: black;" >17</text>
<line x1="25.875" y1="62" x2="25.875" y2="60.4312" />
<text x="25.875" y="66.4823" style="fill: black;" >26</text>
<line x1="34.5" y1="62" x2="34.5" y2="60.4312" />
<text x="34.5" y="66.4823" style="fill: black;" >35</text>
<line x1="43.125" y1="62" x2="43.125" y2="60.4312" />
<text x="43.125" y="66.4823" style="fill: black;" >43</text>
<line x1="51.75" y1="62" x2="51.75" y2="60.4312" />
<text x="51.75" y="66.4823" style="fill: black;" >52</text>
<line x1="60.375" y1="62" x2="60.375" y2="60.4312" />
<text x="60.375" y="66.4823" style="fill: black;" >60</text>
<line x1="69" y1="62" x2="69" y2="60.4312" />
<text x="69" y="66.4823" style="fill: black;" >69</text>
<line x1="77.625" y1="62" x2="77.625" y2="60.4312" />
<text x="77.625" y="66.4823" style="fill: black;" >78</text>
<line x1="86.25" y1="62" x2="86.25" y2="60.4312" />
<text x="86.25" y="66.4823" style="fill: black;" >86</text>
<line x1="94.875" y1="62" x2="94.875" y2="60.4312" />
<text x="94.875" y="66.4823" style="fill: black;" >95</text>
<line x1="103.5" y1="62" x2="103.5" y2="60.4312" />
<text x="103.5" y="66.4823" style="fill: black;" >104</text>
<line x1="112.125" y1="62" x2="112.125" y2="60.4312" />
<text x="112.125" y="66.4823" style="fill: black;" >112</text>
<line x1="120.75" y1="62" x2="120.75" y2="60.4312" />
<text x="120.75" y="66.4823" style="fill: black;" >121</text>
<line x1="129.375" y1="62" x2="129.375" y2="60.4312" />
<text x="129.375" y="66.4823" style="fill: black;" >129</text>
<line x1="138" y1="62" x2="138" y2="60.4312" />
<text x="138" y="66.4823" style="fill: black;" >138</text>
<line x1="146.625" y1="62" x2="146.625" y2="60.4312" />
<text x="146.625" y="66.4823" style="fill: black;" >147</text>
<line x1="155.25" y1="62" x2="155.25" y2="60.4312" />
<text x="155.25" y="66.4823" style="fill: black;" >155</text>
<line x1="163.875" y1="62" x2="163.875" y2="60.4312" />
<text x="163.875" y="66.4823" style="fill: black;" >164</text>
<line x1="172.5" y1="62" x2="172.5" y2="60.4312" />
<text x="172.5" y="66.4823" style="fill: black;" >173</text>
<line x1="181.125" y1="62" x2="181.125" y2="60.4312" />
<text x="181.125" y="66.4823" style="fill: black;" >181</text>
</g>
<g style="font-size: 4.48226px; text-anchor: end;">
<line x1="-69" y1="62" x2="-69" y2="-62" />
<line x1="-69" y1="54.25" x2="-67.6352" y2="54.25" />
<text x="-70.3648" y="54.25" style="baseline-shift:-35%; fill:black;" >-54</text>
<line x1="-69" y1="46.5" x2="-67.6352" y2="46.5" />
<text x="-70.3648" y="46.5" style="baseline-shift:-35%; fill:black;" >-47</text>
<line x1="-69" y1="38.75" x2="-67.6352" y2="38.75" />
<text x="-70.3648" y="38.75" style="baseline-shift:-35%; fill:black;" >-39</text>
<line x1="-69" y1="31" x2="-67.6352" y2="31" />
<text x="-70.3648" y="31" style="baseline-shift:-35%; fill:black;" >-31</text>
<line x1="-69" y1="23.25" x2="-67.6352" y2="23.25" />
<text x="-70.3648" y="23.25" style="baseline-shift:-35%; fill:black;" >-23</text>
<line x1="-69" y1="15.5" x2="-67.6352" y2="15.5" />
<text x="-70.3648" y="15.5" style="baseline-shift:-35%; fill:black;" >-16</text>
<line x1="-69" y1="7.75" x2="-67.6352" y2="7.75" />
<text x="-70.3648" y="7.75" style="baseline-shift:-35%; fill:black;" >-8</text>
<line x1="-69" y1="-0" x2="-67.6352" y2="-0" />
<text x="-70.3648" y="-0" style="baseline-shift:-35%; fill:black;" >0</text>
<line x1="-69" y1="-7.75" x2="-67.6352" y2="-7.75" />
<text x="-70.3648" y="-7.75" style="baseline-shift:-35%; fill:black;" >8</text>
<line x1="-69" y1="-15.5" x2="-67.6352" y2="-15.5" />
<text x="-70.3648" y="-15.5" style="baseline-shift:-35%; fill:black;" >16</text>
<line x1="-69" y1="-23.25" x2="-67.6352" y2="-23.25" />
<text x="-70.3648" y="-23.25" style="baseline-shift:-35%; fill:black;" >23</text>
<line x1="-69" y1="-31" x2="-67.6352" y2="-31" />
<text x="-70.3648" y="-31" style="baseline-shift:-35%; fill:black;" >31</text>
<line x1="-69" y1="-38.75" x2="-67.6352" y2="-38.75" />
<text x="-70.3648" y="-38.75" style="baseline-shift:-35%; fill:black;" >39</text>
<line x1="-69" y1="-46.5" x2="-67.6352" y2="-46.5" />
<text x="-70.3648" y="-46.5" style="baseline-shift:-35%; fill:black;" >47</text>
<line x1="-69" y1="-54.25" x2="-67.6352" y2="-54.25" />
<text x="-70.3648" y="-54.25" style="baseline-shift:-35%; fill:black;" >54</text>
</g>
<g transform="scale(1,-1)">
<g>
<polygon points="0 19.2113 0 48.0282 5.53714 45.3628 29.5965 45.3628 29.5965 29.1339 5.53714 29.1339 5.53714 24.8596 " />
<polygon points="0 -19.2113 0 -48.0282 5.53714 -45.3628 29.5965 -45.3628 29.5965 -29.1339 5.53714 -29.1339 5.53714 -24.8596 " />
<polygon style="fill: black;" points="0 19.2113 0 48.0282 4.42971 45.8959 4.42971 23.73 " />
<polygon style="fill: black;" points="0 -19.2113 0 -48.0282 4.42971 -45.8959 4.42971 -23.73 " />
<polyline style="fill: black;" points="-2.21485 49.0944 -2.21485 52.0944 6.64456 47.8297 6.64456 44.8297 -2.21485 49.0944 " />
<polyline style="fill: black;" points="-2.21485 -49.0944 -2.21485 -52.0944 6.64456 -47.8297 6.64456 -44.8297 -2.21485 -49.0944 " />
<polygon style="fill: red;" points="-2.21485 49.0944 -2.21485 52.0944 6.64456 47.8297 6.64456 44.8297 -2.21485 49.0944 " />
<polygon style="fill: red;" points="-2.21485 -49.0944 -2.21485 -52.0944 6.64456 -47.8297 6.64456 -44.8297 -2.21485 -49.0944 " />
<polygon style="fill: white;" points="13.5106 29.1339 13.5106 45.3628 17.5678 45.3628 17.5678 29.1339 " />
<polygon style="fill: white;" points="13.5106 -29.1339 13.5106 -45.3628 17.5678 -45.3628 17.5678 -29.1339 " />
</g>
<g>
<polygon points="0 12.4754 0 19.2113 4.42971 19.2113 4.42971 12.4754 0 12.4754 0 14.1251 4.42971 14.1251 4.42971 12.4754 " />
<polygon points="0 -12.4754 0 -19.2113 4.42971 -19.2113 4.42971 -12.4754 0 -12.4754 0 -14.1251 4.42971 -14.1251 4.42971 -12.4754 " />
<line x1="4.42971" y1="19.2113" x2="4.42971" y2="24.8596"  />
<line x1="4.42971" y1="-19.2113" x2="4.42971" y2="-24.8596"  />
</g>
<g>
<polygon points="31.9079 9.12551 31.9079 12.2114 34.1295 12.2114 34.1295 9.12551 31.9079 9.12551 31.9079 11.5392 34.1295 11.5392 34.1295 9.12551 " />
<polygon points="31.9079 -9.12551 31.9079 -12.2114 34.1295 -12.2114 34.1295 -9.12551 31.9079 -9.12551 31.9079 -11.5392 34.1295 -11.5392 34.1295 -9.12551 " />
<line x1="31.9079" y1="12.2114" x2="31.9079" y2="12.3234"  />
<line x1="31.9079" y1="-12.2114" x2="31.9079" y2="-12.3234"  />
<polygon points="35.8067 9.33241 35.8067 12.0993 37.8256 12.0993 37.8256 9.33241 35.8067 9.33241 35.8067 11.5076 37.8256 11.5076 37.8256 9.33241 " />
<polygon points="35.8067 -9.33241 35.8067 -12.0993 37.8256 -12.0993 37.8256 -9.33241 35.8067 -9.33241 35.8067 -11.5076 37.8256 -11.5076 37.8256 -9.33241 " />
<line x1="35.8067" y1="12.0993" x2="35.8067" y2="12.2114"  />
<line x1="35.8067" y1="-12.0993" x2="35.8067" y2="-12.2114"  />
<polygon points="39.4679 9.48583 39.4679 11.9873 41.322 11.9873 41.322 9.48583 39.4679 9.48583 39.4679 11.4612 41.322 11.4612 41.322 9.48583 " />
<polygon points="39.4679 -9.48583 39.4679 -11.9873 41.322 -11.9873 41.322 -9.48583 39.4679 -9.48583 39.4679 -11.4612 41.322 -11.4612 41.322 -9.48583 " />
<line x1="39.4679" y1="11.9873" x2="39.4679" y2="12.0993"  />
<line x1="39.4679" y1="-11.9873" x2="39.4679" y2="-12.0993"  />
<polygon points="42.9388 9.58766 42.9388 11.8753 44.6587 11.8753 44.6587 9.58766 42.9388 9.58766 42.9388 11.4029 44.6587 11.4029 44.6587 9.58766 " />
<polygon points="42.9388 -9.58766 42.9388 -11.8753 44.6587 -11.8753 44.6587 -9.58766 42.9388 -9.58766 42.9388 -11.4029 44.6587 -11.4029 44.6587 -9.58766 " />
<line x1="42.9388" y1="11.8753" x2="42.9388" y2="11.9873"  />
<line x1="42.9388" y1="-11.8753" x2="42.9388" y2="-11.9873"  />
<polygon points="46.2591 9.64681 46.2591 11.7632 47.8699 11.7632 47.8699 9.64681 46.2591 9.64681 46.2591 11.3351 47.8699 11.3351 47.8699 9.64681 " />
<polygon points="46.2591 -9.64681 46.2591 -11.7632 47.8699 -11.7632 47.8699 -9.64681 46.2591 -9.64681 46.2591 -11.3351 47.8699 -11.3351 47.8699 -9.64681 " />
<line x1="46.2591" y1="11.7632" x2="46.2591" y2="11.8753"  />
<line x1="46.2591" y1="-11.7632" x2="46.2591" y2="-11.8753"  />
<polygon points="49.463 9.77769 49.463 11.6512 50.9857 11.6512 50.9857 9.77769 49.463 9.77769 49.463 11.2593 50.9857 11.2593 50.9857 9.77769 " />
<polygon points="49.463 -9.77769 49.463 -11.6512 50.9857 -11.6512 50.9857 -9.77769 49.463 -9.77769 49.463 -11.2593 50.9857 -11.2593 50.9857 -9.77769 " />
<line x1="49.463" y1="11.6512" x2="49.463" y2="11.7632"  />
<line x1="49.463" y1="-11.6512" x2="49.463" y2="-11.7632"  />
<polygon points="52.5807 9.77481 52.5807 11.5392 54.0334 11.5392 54.0334 9.77481 52.5807 9.77481 52.5807 11.1769 54.0334 11.1769 54.0334 9.77481 " />
<polygon points="52.5807 -9.77481 52.5807 -11.5392 54.0334 -11.5392 54.0334 -9.77481 52.5807 -9.77481 52.5807 -11.1769 54.0334 -11.1769 54.0334 -9.77481 " />
<line x1="52.5807" y1="11.5392" x2="52.5807" y2="11.6512"  />
<line x1="52.5807" y1="-11.5392" x2="52.5807" y2="-11.6512"  />
<polygon points="55.6401 9.7459 55.6401 11.4271 57.0387 11.4271 57.0387 9.7459 55.6401 9.7459 55.6401 11.0887 57.0387 11.0887 57.0387 9.7459 " />
<polygon points="55.6401 -9.7459 55.6401 -11.4271 57.0387 -11.4271 57.0387 -9.7459 55.6401 -9.7459 55.6401 -11.0887 57.0387 -11.0887 57.0387 -9.7459 " />
<line x1="55.6401" y1="11.4271" x2="55.6401" y2="11.5392"  />
<line x1="55.6401" y1="-11.4271" x2="55.6401" y2="-11.5392"  />
<polygon points="58.6674 9.7031 58.6674 11.3151 60.0266 11.3151 60.0266 9.7031 58.6674 9.7031 58.6674 10.9953 60.0266 10.9953 60.0266 9.7031 " />
<polygon points="58.6674 -9.7031 58.6674 -11.3151 60.0266 -11.3151 60.0266 -9.7031 58.6674 -9.7031 58.6674 -10.9953 60.0266 -10.9953 60.0266 -9.7031 " />
<line x1="58.6674" y1="11.3151" x2="58.6674" y2="11.4271"  />
<line x1="58.6674" y1="-11.3151" x2="58.6674" y2="-11.4271"  />
<polygon points="61.6889 8.94077 61.6889 11.2031 63.0224 11.2031 63.0224 8.94077 61.6889 8.94077 61.6889 10.8973 63.0224 10.8973 63.0224 8.94077 " />
<polygon points="61.6889 -8.94077 61.6889 -11.2031 63.0224 -11.2031 63.0224 -8.94077 61.6889 -8.94077 61.6889 -10.8973 63.0224 -10.8973 63.0224 -8.94077 " />
<line x1="61.6889" y1="11.2031" x2="61.6889" y2="11.3151"  />
<line x1="61.6889" y1="-11.2031" x2="61.6889" y2="-11.3151"  />
<polygon points="64.7313 8.92086 64.7313 11.0911 66.0526 11.0911 66.0526 8.92086 64.7313 8.92086 64.7313 10.7949 66.0526 10.7949 66.0526 8.92086 " />
<polygon points="64.7313 -8.92086 64.7313 -11.0911 66.0526 -11.0911 66.0526 -8.92086 64.7313 -8.92086 64.7313 -10.7949 66.0526 -10.7949 66.0526 -8.92086 " />
<line x1="64.7313" y1="11.0911" x2="64.7313" y2="11.2031"  />
<line x1="64.7313" y1="-11.0911" x2="64.7313" y2="-11.2031"  />
</g>
<g>
<line x1="5.53714" y1="24.8595" x2="5.53714" y2="29.1341"  />
<line x1="5.53714" y1="-24.8595" x2="5.53714" y2="-29.1341"  />
<polyline points="5.53714 24.8595 5.61084 24.8586 5.68454 24.856 5.75824 24.8518 5.83194 24.8459 5.90564 24.8384 5.97934 24.8294 6.05304 24.819 6.12674 24.8074 6.20044 24.7946 6.27414 24.7808 6.34784 24.7661 6.42154 24.7507 6.49524 24.7348 6.56894 24.7185 6.64264 24.7021 6.71635 24.6856 6.79005 24.6694 6.86375 24.6534 6.93745 24.6381 7.01115 24.6234 7.08485 24.6096 7.15855 24.5968 7.23225 24.5851 7.30595 24.5747 7.37965 24.5658 7.45335 24.5583 7.52705 24.5524 7.60075 24.5481 7.67445 24.5455 " />
<polyline points="5.53714 -24.8595 5.61084 -24.8586 5.68454 -24.856 5.75824 -24.8518 5.83194 -24.8459 5.90564 -24.8384 5.97934 -24.8294 6.05304 -24.819 6.12674 -24.8074 6.20044 -24.7946 6.27414 -24.7808 6.34784 -24.7661 6.42154 -24.7507 6.49524 -24.7348 6.56894 -24.7185 6.64264 -24.7021 6.71635 -24.6856 6.79005 -24.6694 6.86375 -24.6534 6.93745 -24.6381 7.01115 -24.6234 7.08485 -24.6096 7.15855 -24.5968 7.23225 -24.5851 7.30595 -24.5747 7.37965 -24.5658 7.45335 -24.5583 7.52705 -24.5524 7.60075 -24.5481 7.67445 -24.5455 " />
<polyline points="5.53714 29.1341 5.61084 29.1334 5.68454 29.1313 5.75824 29.1278 5.83194 29.1229 5.90564 29.1168 5.97934 29.1095 6.05304 29.101 6.12674 29.0914 6.20044 29.0809 6.27414 29.0696 6.34784 29.0576 6.42154 29.045 6.49524 29.0319 6.56894 29.0186 6.64264 29.0051 6.71635 28.9916 6.79005 28.9783 6.86375 28.9652 6.93745 28.9526 7.01115 28.9406 7.08485 28.9293 7.15855 28.9188 7.23225 28.9092 7.30595 28.9007 7.37965 28.8934 7.45335 28.8873 7.52705 28.8824 7.60075 28.8789 7.67445 28.8768 " />
<polyline points="5.53714 -29.1341 5.61084 -29.1334 5.68454 -29.1313 5.75824 -29.1278 5.83194 -29.1229 5.90564 -29.1168 5.97934 -29.1095 6.05304 -29.101 6.12674 -29.0914 6.20044 -29.0809 6.27414 -29.0696 6.34784 -29.0576 6.42154 -29.045 6.49524 -29.0319 6.56894 -29.0186 6.64264 -29.0051 6.71635 -28.9916 6.79005 -28.9783 6.86375 -28.9652 6.93745 -28.9526 7.01115 -28.9406 7.08485 -28.9293 7.15855 -28.9188 7.23225 -28.9092 7.30595 -28.9007 7.37965 -28.8934 7.45335 -28.8873 7.52705 -28.8824 7.60075 -28.8789 7.67445 -28.8768 " />
</g>
<g>
<polygon style="fill: yellow;" points="23.105 29.1339 23.105 45.3628 29.5965 45.3628 29.5965 29.1339 " />
<polygon style="fill: yellow;" points="23.105 -29.1339 23.105 -45.3628 29.5965 -45.3628 29.5965 -29.1339 " />
</g>
<g>
<line x1="7.67445" y1="24.5447" x2="7.67445" y2="28.8761"  />
<line x1="7.67445" y1="-24.5447" x2="7.67445" y2="-28.8761"  />
<polyline points="7.67445 28.8761 7.67445 28.8761 10.8893 28.8761 15.394 26.4698 19.8276 24.0634 24.0841 21.6571 " />
<polyline points="7.67445 -28.8761 7.67445 -28.8761 10.8893 -28.8761 15.394 -26.4698 19.8276 -24.0634 24.0841 -21.6571 " />
<polyline points="7.67445 24.5447 7.67445 24.5447 10.8893 24.5447 15.394 22.6803 19.8276 20.6308 24.0841 18.4422 " />
<polyline points="7.67445 -24.5447 7.67445 -24.5447 10.8893 -24.5447 15.394 -22.6803 19.8276 -20.6308 24.0841 -18.4422 " />
<line x1="24.0841" y1="18.4422" x2="24.0841" y2="21.6571"  />
<line x1="24.0841" y1="-18.4422" x2="24.0841" y2="-21.6571"  />
<polygon style="fill: white;" points="7.67445 28.8761 7.67445 24.5447 10.5621 24.5447 10.5621 28.8761 " />
<polygon style="fill: white;" points="7.67445 -28.8761 7.67445 -24.5447 10.5621 -24.5447 10.5621 -28.8761 " />
<polygon style="fill: black;" points="10.8893 28.8761 10.8893 24.5447 12.8144 23.748 12.8144 27.8477 " />
<polygon style="fill: black;" points="10.8893 -28.8761 10.8893 -24.5447 12.8144 -23.748 12.8144 -27.8477 " />
<polygon style="fill: white;" points="13.1417 27.6729 13.1417 23.6125 15.0667 22.8158 15.0667 26.6446 " />
<polygon style="fill: white;" points="13.1417 -27.6729 13.1417 -23.6125 15.0667 -22.8158 15.0667 -26.6446 " />
<polygon style="fill: black;" points="15.394 26.4698 15.394 22.6803 17.2887 21.8045 17.2887 25.4414 " />
<polygon style="fill: black;" points="15.394 -26.4698 15.394 -22.6803 17.2887 -21.8045 17.2887 -25.4414 " />
<polygon style="fill: white;" points="17.6108 25.2666 17.6108 21.6556 19.5055 20.7797 19.5055 24.2382 " />
<polygon style="fill: white;" points="17.6108 -25.2666 17.6108 -21.6556 19.5055 -20.7797 19.5055 -24.2382 " />
<polygon style="fill: black;" points="19.8276 24.0634 19.8276 20.6308 21.7891 19.6222 21.7891 22.9545 " />
<polygon style="fill: black;" points="19.8276 -24.0634 19.8276 -20.6308 21.7891 -19.6222 21.7891 -22.9545 " />
<polygon style="fill: white;" points="22.1226 22.766 22.1226 19.4508 24.0841 18.4422 24.0841 21.6571 " />
<polygon style="fill: white;" points="22.1226 -22.766 22.1226 -19.4508 24.0841 -18.4422 24.0841 -21.6571 " />
</g>
<g>
<polygon points="10.8893 22.5912 10.8893 22.6803 12.8144 22.6803 12.8144 22.5912 10.8893 22.5912 10.8893 23.7802 12.8144 23.7802 12.8144 22.5912 " />
<polygon points="10.8893 -22.5912 10.8893 -22.6803 12.8144 -22.6803 12.8144 -22.5912 10.8893 -22.5912 10.8893 -23.7802 12.8144 -23.7802 12.8144 -22.5912 " />
<line x1="10.8893" y1="22.6803" x2="10.8893" y2="24.5447"  />
<line x1="10.8893" y1="-22.6803" x2="10.8893" y2="-24.5447"  />
<polygon points="15.394 20.9109 15.394 20.6308 17.2887 20.6308 17.2887 20.9109 15.394 20.9109 15.394 22.0115 17.2887 22.0115 17.2887 20.9109 " />
<polygon points="15.394 -20.9109 15.394 -20.6308 17.2887 -20.6308 17.2887 -20.9109 15.394 -20.9109 15.394 -22.0115 17.2887 -22.0115 17.2887 -20.9109 " />
<line x1="15.394" y1="20.6308" x2="15.394" y2="22.6803"  />
<line x1="15.394" y1="-20.6308" x2="15.394" y2="-22.6803"  />
<polygon points="19.8276 19.0237 19.8276 18.4422 21.7891 18.4422 21.7891 19.0237 19.8276 19.0237 19.8276 20.0249 21.7891 20.0249 21.7891 19.0237 " />
<polygon points="19.8276 -19.0237 19.8276 -18.4422 21.7891 -18.4422 21.7891 -19.0237 19.8276 -19.0237 19.8276 -20.0249 21.7891 -20.0249 21.7891 -19.0237 " />
<line x1="19.8276" y1="18.4422" x2="19.8276" y2="20.6308"  />
<line x1="19.8276" y1="-18.4422" x2="19.8276" y2="-20.6308"  />
</g>
<g>
<line x1="67.5987" y1="11.4479" x2="67.5987" y2="13.0171"  />
<line x1="67.5987" y1="-11.4479" x2="67.5987" y2="-13.0171"  />
<polyline points="67.5987 11.4479 67.734 11.4333 67.8692 11.3897 68.0045 11.3176 68.1398 11.2178 68.275 11.0913 68.4103 10.9395 68.5456 10.7642 68.6809 10.5671 68.8161 10.3506 68.9514 10.1169 69.0867 9.86866 69.222 9.60853 69.3572 9.33939 69.4925 9.06418 69.6278 8.78593 69.7631 8.50768 69.8983 8.23247 70.0336 7.96333 70.1689 7.70321 70.3041 7.45494 70.4394 7.22126 70.5747 7.00472 70.71 6.80769 70.8452 6.63234 70.9805 6.48059 71.1158 6.35409 71.2511 6.25423 71.3863 6.18212 71.5216 6.13853 " />
<polyline points="67.5987 -11.4479 67.734 -11.4333 67.8692 -11.3897 68.0045 -11.3176 68.1398 -11.2178 68.275 -11.0913 68.4103 -10.9395 68.5456 -10.7642 68.6809 -10.5671 68.8161 -10.3506 68.9514 -10.1169 69.0867 -9.86866 69.222 -9.60853 69.3572 -9.33939 69.4925 -9.06418 69.6278 -8.78593 69.7631 -8.50768 69.8983 -8.23247 70.0336 -7.96333 70.1689 -7.70321 70.3041 -7.45494 70.4394 -7.22126 70.5747 -7.00472 70.71 -6.80769 70.8452 -6.63234 70.9805 -6.48059 71.1158 -6.35409 71.2511 -6.25423 71.3863 -6.18212 71.5216 -6.13853 " />
<polyline points="67.5987 13.0171 67.734 13.0257 67.8692 13.0516 68.0045 13.0945 68.1398 13.1538 68.275 13.2289 68.4103 13.319 68.5456 13.4232 68.6809 13.5402 68.8161 13.6688 68.9514 13.8076 69.0867 13.9551 69.222 14.1096 69.3572 14.2694 69.4925 14.4329 69.6278 14.5981 69.7631 14.7634 69.8983 14.9268 70.0336 15.0867 70.1689 15.2412 70.3041 15.3886 70.4394 15.5274 70.5747 15.656 70.71 15.7731 70.8452 15.8772 70.9805 15.9673 71.1158 16.0425 71.2511 16.1018 71.3863 16.1446 71.5216 16.1705 " />
<polyline points="67.5987 -13.0171 67.734 -13.0257 67.8692 -13.0516 68.0045 -13.0945 68.1398 -13.1538 68.275 -13.2289 68.4103 -13.319 68.5456 -13.4232 68.6809 -13.5402 68.8161 -13.6688 68.9514 -13.8076 69.0867 -13.9551 69.222 -14.1096 69.3572 -14.2694 69.4925 -14.4329 69.6278 -14.5981 69.7631 -14.7634 69.8983 -14.9268 70.0336 -15.0867 70.1689 -15.2412 70.3041 -15.3886 70.4394 -15.5274 70.5747 -15.656 70.71 -15.7731 70.8452 -15.8772 70.9805 -15.9673 71.1158 -16.0425 71.2511 -16.1018 71.3863 -16.1446 71.5216 -16.1705 " />
</g>
<g>
<polygon style="fill: yellow;" points="25.4906 17.7477 25.4906 21.102 29.5092 17.0553 29.5092 12.6846 " />
<polygon style="fill: yellow;" points="25.4906 -17.7477 25.4906 -21.102 29.5092 -17.0553 29.5092 -12.6846 " />
<line x1="25.4906" y1="21.102" x2="23.105" y2="29.1339"  />
<line x1="25.4906" y1="-21.102" x2="23.105" y2="-29.1339"  />
<line x1="29.5092" y1="17.0553" x2="29.5965" y2="29.1339"  />
<line x1="29.5092" y1="-17.0553" x2="29.5965" y2="-29.1339"  />
</g>
<g>
<line x1="30.5139" y1="12.3234" x2="30.5139" y2="16.7665"  />
<line x1="30.5139" y1="-12.3234" x2="30.5139" y2="-16.7665"  />
<polyline points="30.5139 16.7665 30.5139 16.7665 31.9079 16.7665 35.8067 16.1986 39.4679 15.7148 42.9388 15.2981 46.2591 14.9358 49.463 14.6183 52.5807 14.3387 55.6401 14.0917 58.6674 13.8737 61.6889 13.6821 64.7313 13.5155 67.5987 13.0171 " />
<polyline points="30.5139 -16.7665 30.5139 -16.7665 31.9079 -16.7665 35.8067 -16.1986 39.4679 -15.7148 42.9388 -15.2981 46.2591 -14.9358 49.463 -14.6183 52.5807 -14.3387 55.6401 -14.0917 58.6674 -13.8737 61.6889 -13.6821 64.7313 -13.5155 67.5987 -13.0171 " />
<polyline points="30.5139 12.3234 30.5139 12.3234 31.9079 12.3234 35.8067 12.2114 39.4679 12.0993 42.9388 11.9873 46.2591 11.8753 49.463 11.7632 52.5807 11.6512 55.6401 11.5392 58.6674 11.4271 61.6889 11.3151 64.7313 11.2031 67.5987 11.0911 " />
<polyline points="30.5139 -12.3234 30.5139 -12.3234 31.9079 -12.3234 35.8067 -12.2114 39.4679 -12.0993 42.9388 -11.9873 46.2591 -11.8753 49.463 -11.7632 52.5807 -11.6512 55.6401 -11.5392 58.6674 -11.4271 61.6889 -11.3151 64.7313 -11.2031 67.5987 -11.0911 " />
<line x1="67.5987" y1="11.0911" x2="67.5987" y2="13.374"  />
<line x1="67.5987" y1="-11.0911" x2="67.5987" y2="-13.374"  />
<polygon style="fill: white;" points="30.5139 16.7665 30.5139 12.3234 31.6246 12.3234 31.6246 16.7665 " />
<polygon style="fill: white;" points="30.5139 -16.7665 30.5139 -12.3234 31.6246 -12.3234 31.6246 -16.7665 " />
<polyline points="31.2109 16.7665 31.2109 18.6665 32.2109 18.6665 32.2109 18.4165 32.7109 18.4165 32.7109 18.9165 32.2109 18.9165 32.2109 18.6665 " />
<polyline points="31.2109 -16.7665 31.2109 -18.6665 32.2109 -18.6665 32.2109 -18.4165 32.7109 -18.4165 32.7109 -18.9165 32.2109 -18.9165 32.2109 -18.6665 " />
<polygon style="fill: black;" points="31.9079 16.7665 31.9079 12.3234 34.1295 12.2596 34.1295 16.4429 " />
<polygon style="fill: black;" points="31.9079 -16.7665 31.9079 -12.3234 34.1295 -12.2596 34.1295 -16.4429 " />
<polygon style="fill: white;" points="34.4127 16.4017 34.4127 12.2514 35.5235 12.2195 35.5235 16.2398 " />
<polygon style="fill: white;" points="34.4127 -16.4017 34.4127 -12.2514 35.5235 -12.2195 35.5235 -16.2398 " />
<polyline points="34.9681 16.3207 34.9681 18.2207 35.9681 18.2207 35.9681 17.9707 36.4681 17.9707 36.4681 18.4707 35.9681 18.4707 35.9681 18.2207 " />
<polyline points="34.9681 -16.3207 34.9681 -18.2207 35.9681 -18.2207 35.9681 -17.9707 36.4681 -17.9707 36.4681 -18.4707 35.9681 -18.4707 35.9681 -18.2207 " />
<polygon style="fill: black;" points="35.8067 16.1986 35.8067 12.2114 37.8256 12.1496 37.8256 15.9318 " />
<polygon style="fill: black;" points="35.8067 -16.1986 35.8067 -12.2114 37.8256 -12.1496 37.8256 -15.9318 " />
<polygon style="fill: white;" points="38.0916 15.8967 38.0916 12.1414 39.2019 12.1075 39.2019 15.75 " />
<polygon style="fill: white;" points="38.0916 -15.8967 38.0916 -12.1414 39.2019 -12.1075 39.2019 -15.75 " />
<polyline points="38.6468 15.8233 38.6468 17.7233 39.6468 17.7233 39.6468 17.4733 40.1468 17.4733 40.1468 17.9733 39.6468 17.9733 39.6468 17.7233 " />
<polyline points="38.6468 -15.8233 38.6468 -17.7233 39.6468 -17.7233 39.6468 -17.4733 40.1468 -17.4733 40.1468 -17.9733 39.6468 -17.9733 39.6468 -17.7233 " />
<polygon style="fill: black;" points="39.4679 15.7148 39.4679 12.0993 41.322 12.0395 41.322 15.4922 " />
<polygon style="fill: black;" points="39.4679 -15.7148 39.4679 -12.0993 41.322 -12.0395 41.322 -15.4922 " />
<polygon style="fill: white;" points="41.5742 15.462 41.5742 12.0313 42.6866 11.9954 42.6866 15.3284 " />
<polygon style="fill: white;" points="41.5742 -15.462 41.5742 -12.0313 42.6866 -11.9954 42.6866 -15.3284 " />
<polyline points="42.1304 15.3952 42.1304 17.2952 43.1304 17.2952 43.1304 17.0452 43.6304 17.0452 43.6304 17.5452 43.1304 17.5452 43.1304 17.2952 " />
<polyline points="42.1304 -15.3952 42.1304 -17.2952 43.1304 -17.2952 43.1304 -17.0452 43.6304 -17.0452 43.6304 -17.5452 43.1304 -17.5452 43.1304 -17.2952 " />
<polygon style="fill: black;" points="42.9388 15.2981 42.9388 11.9873 44.6587 11.9293 44.6587 15.1104 " />
<polygon style="fill: black;" points="42.9388 -15.2981 42.9388 -11.9873 44.6587 -11.9293 44.6587 -15.1104 " />
<polygon style="fill: white;" points="44.8999 15.0841 44.8999 11.9211 46.0179 11.8834 46.0179 14.9621 " />
<polygon style="fill: white;" points="44.8999 -15.0841 44.8999 -11.9211 46.0179 -11.8834 46.0179 -14.9621 " />
<polygon style="fill: black;" points="46.2591 14.9358 46.2591 11.8753 47.8699 11.8189 47.8699 14.7762 " />
<polygon style="fill: black;" points="46.2591 -14.9358 46.2591 -11.8753 47.8699 -11.8189 47.8699 -14.7762 " />
<polygon style="fill: white;" points="48.1027 14.7531 48.1027 11.8108 49.2302 11.7714 49.2302 14.6414 " />
<polygon style="fill: white;" points="48.1027 -14.7531 48.1027 -11.8108 49.2302 -11.7714 49.2302 -14.6414 " />
<polygon style="fill: black;" points="49.463 14.6183 49.463 11.7632 50.9857 11.7085 50.9857 14.4817 " />
<polygon style="fill: black;" points="49.463 -14.6183 49.463 -11.7632 50.9857 -11.7085 50.9857 -14.4817 " />
<polygon style="fill: white;" points="51.2122 14.4614 51.2122 11.7004 52.3542 11.6593 52.3542 14.359 " />
<polygon style="fill: white;" points="51.2122 -14.4614 51.2122 -11.7004 52.3542 -11.6593 52.3542 -14.359 " />
<polygon style="fill: black;" points="52.5807 14.3387 52.5807 11.6512 54.0334 11.598 54.0334 14.2214 " />
<polygon style="fill: black;" points="52.5807 -14.3387 52.5807 -11.6512 54.0334 -11.598 54.0334 -14.2214 " />
<polygon style="fill: white;" points="54.2556 14.2035 54.2556 11.5899 55.4178 11.5473 55.4178 14.1097 " />
<polygon style="fill: white;" points="54.2556 -14.2035 54.2556 -11.5899 55.4178 -11.5473 55.4178 -14.1097 " />
<polygon style="fill: black;" points="55.6401 14.0917 55.6401 11.5392 57.0387 11.4874 57.0387 13.991 " />
<polygon style="fill: black;" points="55.6401 -14.0917 55.6401 -11.5392 57.0387 -11.4874 57.0387 -13.991 " />
<polygon style="fill: white;" points="57.2586 13.9751 57.2586 11.4793 58.4475 11.4353 58.4475 13.8895 " />
<polygon style="fill: white;" points="57.2586 -13.9751 57.2586 -11.4793 58.4475 -11.4353 58.4475 -13.8895 " />
<polygon style="fill: black;" points="58.6674 13.8737 58.6674 11.4271 60.0266 11.3767 60.0266 13.7875 " />
<polygon style="fill: black;" points="58.6674 -13.8737 58.6674 -11.4271 60.0266 -11.3767 60.0266 -13.7875 " />
<polygon style="fill: white;" points="60.2461 13.7736 60.2461 11.3686 61.4694 11.3233 61.4694 13.696 " />
<polygon style="fill: white;" points="60.2461 -13.7736 60.2461 -11.3686 61.4694 -11.3233 61.4694 -13.696 " />
<polygon style="fill: black;" points="61.6889 13.6821 61.6889 11.3151 63.0224 11.266 63.0224 13.6091 " />
<polygon style="fill: black;" points="61.6889 -13.6821 61.6889 -11.3151 63.0224 -11.266 63.0224 -13.6091 " />
<polygon style="fill: white;" points="63.2434 13.597 63.2434 11.2579 64.5102 11.2112 64.5102 13.5276 " />
<polygon style="fill: white;" points="63.2434 -13.597 63.2434 -11.2579 64.5102 -11.2112 64.5102 -13.5276 " />
<polygon style="fill: black;" points="64.7313 13.5155 64.7313 11.2031 66.0526 11.1515 66.0526 13.4503 " />
<polygon style="fill: black;" points="64.7313 -13.5155 64.7313 -11.2031 66.0526 -11.1515 66.0526 -13.4503 " />
<polygon style="fill: white;" points="66.2773 13.4392 66.2773 11.1427 67.5987 11.0911 67.5987 13.374 " />
<polygon style="fill: white;" points="66.2773 -13.4392 66.2773 -11.1427 67.5987 -11.0911 67.5987 -13.374 " />
</g>
<g>
<line x1="24.0841" y1="18.4422" x2="24.0841" y2="21.6571"  />
<line x1="24.0841" y1="-18.4422" x2="24.0841" y2="-21.6571"  />
<polyline points="24.0841 18.4422 24.3058 18.4254 24.5275 18.3753 24.7492 18.2925 24.971 18.1777 25.1927 18.0323 25.4144 17.8579 25.6361 17.6564 25.8578 17.4299 26.0795 17.1811 26.3013 16.9125 26.523 16.6272 26.7447 16.3282 26.9664 16.0189 27.1881 15.7026 27.4098 15.3828 27.6316 15.063 27.8533 14.7467 28.075 14.4374 28.2967 14.1384 28.5184 13.8531 28.7401 13.5845 28.9618 13.3357 29.1836 13.1092 29.4053 12.9077 29.627 12.7333 29.8487 12.5879 30.0704 12.4731 30.2921 12.3902 30.5139 12.3401 " />
<polyline points="24.0841 -18.4422 24.3058 -18.4254 24.5275 -18.3753 24.7492 -18.2925 24.971 -18.1777 25.1927 -18.0323 25.4144 -17.8579 25.6361 -17.6564 25.8578 -17.4299 26.0795 -17.1811 26.3013 -16.9125 26.523 -16.6272 26.7447 -16.3282 26.9664 -16.0189 27.1881 -15.7026 27.4098 -15.3828 27.6316 -15.063 27.8533 -14.7467 28.075 -14.4374 28.2967 -14.1384 28.5184 -13.8531 28.7401 -13.5845 28.9618 -13.3357 29.1836 -13.1092 29.4053 -12.9077 29.627 -12.7333 29.8487 -12.5879 30.0704 -12.4731 30.2921 -12.3902 30.5139 -12.3401 " />
<polyline points="24.0841 21.6571 24.3058 21.6437 24.5275 21.6036 24.7492 21.5374 24.971 21.4457 25.1927 21.3295 25.4144 21.1901 25.6361 21.029 25.8578 20.848 26.0795 20.6491 26.3013 20.4344 26.523 20.2064 26.7447 19.9674 26.9664 19.7202 27.1881 19.4674 27.4098 19.2118 27.6316 18.9562 27.8533 18.7034 28.075 18.4562 28.2967 18.2172 28.5184 17.9892 28.7401 17.7745 28.9618 17.5756 29.1836 17.3946 29.4053 17.2335 29.627 17.0941 29.8487 16.9779 30.0704 16.8862 30.2921 16.82 30.5139 16.7799 " />
<polyline points="24.0841 -21.6571 24.3058 -21.6437 24.5275 -21.6036 24.7492 -21.5374 24.971 -21.4457 25.1927 -21.3295 25.4144 -21.1901 25.6361 -21.029 25.8578 -20.848 26.0795 -20.6491 26.3013 -20.4344 26.523 -20.2064 26.7447 -19.9674 26.9664 -19.7202 27.1881 -19.4674 27.4098 -19.2118 27.6316 -18.9562 27.8533 -18.7034 28.075 -18.4562 28.2967 -18.2172 28.5184 -17.9892 28.7401 -17.7745 28.9618 -17.5756 29.1836 -17.3946 29.4053 -17.2335 29.627 -17.0941 29.8487 -16.9779 30.0704 -16.8862 30.2921 -16.82 30.5139 -16.7799 " />
</g>
<g>
<line x1="71.5216" y1="6.12395" x2="71.5216" y2="16.1792"  />
<line x1="71.5216" y1="-6.12395" x2="71.5216" y2="-16.1792"  />
<polyline points="71.5216 6.12395 72.1837 6.14787 72.8457 6.21938 73.5078 6.3377 74.1699 6.50152 74.832 6.70905 75.494 6.95802 76.1561 7.24571 76.8182 7.56895 77.4802 7.9242 78.1423 8.30759 78.8044 8.71489 79.4664 9.14166 80.1285 9.58322 80.7906 10.0347 81.4526 10.4912 82.1147 10.9477 82.7768 11.3992 83.4388 11.8408 84.1009 12.2676 84.763 12.6749 85.4251 13.0582 86.0871 13.4135 86.7492 13.7367 87.4113 14.0244 88.0733 14.2734 88.7354 14.4809 89.3975 14.6448 90.0595 14.7631 90.7216 14.8346 " />
<polyline points="71.5216 -6.12395 72.1837 -6.14787 72.8457 -6.21938 73.5078 -6.3377 74.1699 -6.50152 74.832 -6.70905 75.494 -6.95802 76.1561 -7.24571 76.8182 -7.56895 77.4802 -7.9242 78.1423 -8.30759 78.8044 -8.71489 79.4664 -9.14166 80.1285 -9.58322 80.7906 -10.0347 81.4526 -10.4912 82.1147 -10.9477 82.7768 -11.3992 83.4388 -11.8408 84.1009 -12.2676 84.763 -12.6749 85.4251 -13.0582 86.0871 -13.4135 86.7492 -13.7367 87.4113 -14.0244 88.0733 -14.2734 88.7354 -14.4809 89.3975 -14.6448 90.0595 -14.7631 90.7216 -14.8346 " />
<polyline points="71.5216 16.1792 72.1837 16.1879 72.8457 16.2141 73.5078 16.2575 74.1699 16.3175 74.832 16.3935 75.494 16.4847 76.1561 16.59 76.8182 16.7084 77.4802 16.8385 78.1423 16.979 78.8044 17.1281 79.4664 17.2845 80.1285 17.4462 80.7906 17.6116 81.4526 17.7788 82.1147 17.946 82.7768 18.1113 83.4388 18.2731 84.1009 18.4294 84.763 18.5786 85.4251 18.719 86.0871 18.8491 86.7492 18.9675 87.4113 19.0729 88.0733 19.164 88.7354 19.2401 89.3975 19.3001 90.0595 19.3434 90.7216 19.3696 " />
<polyline points="71.5216 -16.1792 72.1837 -16.1879 72.8457 -16.2141 73.5078 -16.2575 74.1699 -16.3175 74.832 -16.3935 75.494 -16.4847 76.1561 -16.59 76.8182 -16.7084 77.4802 -16.8385 78.1423 -16.979 78.8044 -17.1281 79.4664 -17.2845 80.1285 -17.4462 80.7906 -17.6116 81.4526 -17.7788 82.1147 -17.946 82.7768 -18.1113 83.4388 -18.2731 84.1009 -18.4294 84.763 -18.5786 85.4251 -18.719 86.0871 -18.8491 86.7492 -18.9675 87.4113 -19.0729 88.0733 -19.164 88.7354 -19.2401 89.3975 -19.3001 90.0595 -19.3434 90.7216 -19.3696 " />
</g>
<g>
<line x1="90.7216" y1="14.8585" x2="90.7216" y2="19.3783"  />
<line x1="90.7216" y1="-14.8585" x2="90.7216" y2="-19.3783"  />
<polyline points="90.7216 19.3783 90.7216 19.3783 90.7216 19.3783 95.5669 19.0675 99.135 19.2978 99.135 19.2978 " />
<polyline points="90.7216 -19.3783 90.7216 -19.3783 90.7216 -19.3783 95.5669 -19.0675 99.135 -19.2978 99.135 -19.2978 " />
<polyline points="90.7216 14.8585 90.7216 14.8585 90.7216 14.8585 95.5669 15.2554 99.135 14.9629 99.135 14.9629 " />
<polyline points="90.7216 -14.8585 90.7216 -14.8585 90.7216 -14.8585 95.5669 -15.2554 99.135 -14.9629 99.135 -14.9629 " />
<line x1="99.135" y1="14.9629" x2="99.135" y2="19.2978"  />
<line x1="99.135" y1="-14.9629" x2="99.135" y2="-19.2978"  />
<polygon style="fill: white;" points="90.7216 19.3783 90.7216 14.8585 92.5295 15.0066 92.5295 19.2624 " />
<polygon style="fill: white;" points="90.7216 -19.3783 90.7216 -14.8585 92.5295 -15.0066 92.5295 -19.2624 " />
<polygon style="fill: black;" points="93.1442 19.2229 93.1442 15.0569 94.9522 15.205 94.9522 19.1069 " />
<polygon style="fill: black;" points="93.1442 -19.2229 93.1442 -15.0569 94.9522 -15.205 94.9522 -19.1069 " />
<polygon style="fill: white;" points="95.5669 19.0675 95.5669 15.2554 97.0917 15.1304 97.0917 19.1659 " />
<polygon style="fill: white;" points="95.5669 -19.0675 95.5669 -15.2554 97.0917 -15.1304 97.0917 -19.1659 " />
<polygon style="fill: black;" points="97.6102 19.1994 97.6102 15.0879 99.135 14.9629 99.135 19.2978 " />
<polygon style="fill: black;" points="97.6102 -19.1994 97.6102 -15.0879 99.135 -14.9629 99.135 -19.2978 " />
</g>
<g>
<line x1="99.135" y1="15.0764" x2="99.135" y2="19.1844"  />
<line x1="99.135" y1="-15.0764" x2="99.135" y2="-19.1844"  />
<polyline points="99.135 15.0764 99.2059 15.0786 99.2767 15.0852 99.3475 15.0961 99.4184 15.1112 99.4892 15.1304 99.56 15.1534 99.6308 15.1799 99.7017 15.2098 99.7725 15.2426 99.8433 15.278 99.9142 15.3156 99.985 15.355 100.056 15.3958 100.127 15.4375 100.197 15.4797 100.268 15.5218 100.339 15.5635 100.41 15.6043 100.481 15.6437 100.552 15.6813 100.622 15.7167 100.693 15.7495 100.764 15.7794 100.835 15.806 100.906 15.829 100.977 15.8481 101.047 15.8632 101.118 15.8742 101.189 15.8808 " />
<polyline points="99.135 -15.0764 99.2059 -15.0786 99.2767 -15.0852 99.3475 -15.0961 99.4184 -15.1112 99.4892 -15.1304 99.56 -15.1534 99.6308 -15.1799 99.7017 -15.2098 99.7725 -15.2426 99.8433 -15.278 99.9142 -15.3156 99.985 -15.355 100.056 -15.3958 100.127 -15.4375 100.197 -15.4797 100.268 -15.5218 100.339 -15.5635 100.41 -15.6043 100.481 -15.6437 100.552 -15.6813 100.622 -15.7167 100.693 -15.7495 100.764 -15.7794 100.835 -15.806 100.906 -15.829 100.977 -15.8481 101.047 -15.8632 101.118 -15.8742 101.189 -15.8808 " />
<polyline points="99.135 19.1844 99.2059 19.1872 99.2767 19.1955 99.3475 19.2092 99.4184 19.2282 99.4892 19.2523 99.56 19.2812 99.6308 19.3146 99.7017 19.3521 99.7725 19.3934 99.8433 19.4379 99.9142 19.4852 99.985 19.5347 100.056 19.5859 100.127 19.6383 100.197 19.6913 100.268 19.7443 100.339 19.7967 100.41 19.848 100.481 19.8975 100.552 19.9448 100.622 19.9893 100.693 20.0305 100.764 20.0681 100.835 20.1015 100.906 20.1304 100.977 20.1544 101.047 20.1735 101.118 20.1872 101.189 20.1955 " />
<polyline points="99.135 -19.1844 99.2059 -19.1872 99.2767 -19.1955 99.3475 -19.2092 99.4184 -19.2282 99.4892 -19.2523 99.56 -19.2812 99.6308 -19.3146 99.7017 -19.3521 99.7725 -19.3934 99.8433 -19.4379 99.9142 -19.4852 99.985 -19.5347 100.056 -19.5859 100.127 -19.6383 100.197 -19.6913 100.268 -19.7443 100.339 -19.7967 100.41 -19.848 100.481 -19.8975 100.552 -19.9448 100.622 -19.9893 100.693 -20.0305 100.764 -20.0681 100.835 -20.1015 100.906 -20.1304 100.977 -20.1544 101.047 -20.1735 101.118 -20.1872 101.189 -20.1955 " />
</g>
<g>
<line x1="101.189" y1="15.883" x2="101.189" y2="20.1983"  />
<line x1="101.189" y1="-15.883" x2="101.189" y2="-20.1983"  />
<polyline points="101.189 20.1983 101.189 20.1983 101.189 20.1983 104.803 21.2426 108.67 22.6523 112.882 24.5861 116.955 27.3016 126.405 27.3016 " />
<polyline points="101.189 -20.1983 101.189 -20.1983 101.189 -20.1983 104.803 -21.2426 108.67 -22.6523 112.882 -24.5861 116.955 -27.3016 126.405 -27.3016 " />
<polyline points="101.189 15.883 101.189 15.883 101.189 15.883 104.803 15.883 108.67 15.883 112.882 15.883 116.955 15.883 126.405 15.883 " />
<polyline points="101.189 -15.883 101.189 -15.883 101.189 -15.883 104.803 -15.883 108.67 -15.883 112.882 -15.883 116.955 -15.883 126.405 -15.883 " />
<line x1="126.405" y1="15.883" x2="126.405" y2="27.3016"  />
<line x1="126.405" y1="-15.883" x2="126.405" y2="-27.3016"  />
<polygon style="fill: white;" points="101.189 20.1983 101.189 15.883 102.807 15.883 102.807 20.6659 " />
<polygon style="fill: white;" points="101.189 -20.1983 101.189 -15.883 102.807 -15.883 102.807 -20.6659 " />
<polygon style="fill: black;" points="103.266 20.7984 103.266 15.883 104.345 15.883 104.345 21.1101 " />
<polygon style="fill: black;" points="103.266 -20.7984 103.266 -15.883 104.345 -15.883 104.345 -21.1101 " />
<polygon style="fill: white;" points="104.803 21.2426 104.803 15.883 106.452 15.883 106.452 21.8437 " />
<polygon style="fill: white;" points="104.803 -21.2426 104.803 -15.883 106.452 -15.883 106.452 -21.8437 " />
<polygon style="fill: black;" points="106.943 22.0226 106.943 15.883 108.18 15.883 108.18 22.4734 " />
<polygon style="fill: black;" points="106.943 -22.0226 106.943 -15.883 108.18 -15.883 108.18 -22.4734 " />
<polygon style="fill: white;" points="108.67 22.6523 108.67 15.883 110.363 15.883 110.363 23.4294 " />
<polygon style="fill: white;" points="108.67 -22.6523 108.67 -15.883 110.363 -15.883 110.363 -23.4294 " />
<polygon style="fill: black;" points="110.897 23.6747 110.897 15.883 112.347 15.883 112.347 24.3408 " />
<polygon style="fill: black;" points="110.897 -23.6747 110.897 -15.883 112.347 -15.883 112.347 -24.3408 " />
<polygon style="fill: white;" points="112.882 24.5861 112.882 15.883 114.622 15.883 114.622 25.7466 " />
<polygon style="fill: white;" points="112.882 -24.5861 112.882 -15.883 114.622 -15.883 114.622 -25.7466 " />
<polygon style="fill: black;" points="115.214 26.1412 115.214 15.883 116.955 15.883 116.955 27.3016 " />
<polygon style="fill: black;" points="115.214 -26.1412 115.214 -15.883 116.955 -15.883 116.955 -27.3016 " />
</g>
<g>
<line x1="126.405" y1="15.883" x2="126.405" y2="27.3016"  />
<line x1="126.405" y1="-15.883" x2="126.405" y2="-27.3016"  />
<polyline points="126.405 15.883 126.503 15.883 126.602 15.883 126.7 15.883 126.799 15.883 126.897 15.883 126.995 15.883 127.094 15.883 127.192 15.883 127.291 15.883 127.389 15.883 127.488 15.883 127.586 15.883 127.684 15.883 127.783 15.883 127.881 15.883 127.98 15.883 128.078 15.883 128.177 15.883 128.275 15.883 128.373 15.883 128.472 15.883 128.57 15.883 128.669 15.883 128.767 15.883 128.866 15.883 128.964 15.883 129.063 15.883 129.161 15.883 129.259 15.883 " />
<polyline points="126.405 -15.883 126.503 -15.883 126.602 -15.883 126.7 -15.883 126.799 -15.883 126.897 -15.883 126.995 -15.883 127.094 -15.883 127.192 -15.883 127.291 -15.883 127.389 -15.883 127.488 -15.883 127.586 -15.883 127.684 -15.883 127.783 -15.883 127.881 -15.883 127.98 -15.883 128.078 -15.883 128.177 -15.883 128.275 -15.883 128.373 -15.883 128.472 -15.883 128.57 -15.883 128.669 -15.883 128.767 -15.883 128.866 -15.883 128.964 -15.883 129.063 -15.883 129.161 -15.883 129.259 -15.883 " />
<polyline points="126.405 27.3016 126.503 27.3016 126.602 27.3016 126.7 27.3016 126.799 27.3016 126.897 27.3016 126.995 27.3016 127.094 27.3016 127.192 27.3016 127.291 27.3016 127.389 27.3016 127.488 27.3016 127.586 27.3016 127.684 27.3016 127.783 27.3016 127.881 27.3016 127.98 27.3016 128.078 27.3016 128.177 27.3016 128.275 27.3016 128.373 27.3016 128.472 27.3016 128.57 27.3016 128.669 27.3016 128.767 27.3016 128.866 27.3016 128.964 27.3016 129.063 27.3016 129.161 27.3016 129.259 27.3016 " />
<polyline points="126.405 -27.3016 126.503 -27.3016 126.602 -27.3016 126.7 -27.3016 126.799 -27.3016 126.897 -27.3016 126.995 -27.3016 127.094 -27.3016 127.192 -27.3016 127.291 -27.3016 127.389 -27.3016 127.488 -27.3016 127.586 -27.3016 127.684 -27.3016 127.783 -27.3016 127.881 -27.3016 127.98 -27.3016 128.078 -27.3016 128.177 -27.3016 128.275 -27.3016 128.373 -27.3016 128.472 -27.3016 128.57 -27.3016 128.669 -27.3016 128.767 -27.3016 128.866 -27.3016 128.964 -27.3016 129.063 -27.3016 129.161 -27.3016 129.259 -27.3016 " />
</g>
<g>
<polyline points="129.259 27.3016 170.212 16.4991 170.212 0 170.212 16.4991 170.212 16.499 129.259 27.3016 129.259 15.883 153.831 0 " />
<polyline points="129.259 -27.3016 170.212 -16.4991 170.212 -0 170.212 -16.4991 170.212 -16.499 129.259 -27.3016 129.259 -15.883 153.831 -0 " />
</g>
<g>
<line x1="29.5965" y1="29.1339" x2="29.5965" y2="45.3628"  />
<line x1="29.5965" y1="-29.1339" x2="29.5965" y2="-45.3628"  />
<polyline points="29.5965 29.1339 30.9956 29.1339 32.3946 29.1339 33.7936 29.1339 35.1927 29.1339 36.5917 29.1339 37.9908 29.1339 39.3898 29.1339 40.7889 29.1339 42.1879 29.1339 43.5869 29.1339 44.986 29.1339 46.385 29.1339 47.7841 29.1339 49.1831 29.1339 50.5821 29.1339 51.9812 29.1339 53.3802 29.1339 54.7793 29.1339 56.1783 29.1339 57.5774 29.1339 58.9764 29.1339 60.3754 29.1339 61.7745 29.1339 63.1735 29.1339 64.5726 29.1339 65.9716 29.1339 67.3706 29.1339 68.7697 29.1339 70.1687 29.1339 " />
<polyline points="29.5965 -29.1339 30.9956 -29.1339 32.3946 -29.1339 33.7936 -29.1339 35.1927 -29.1339 36.5917 -29.1339 37.9908 -29.1339 39.3898 -29.1339 40.7889 -29.1339 42.1879 -29.1339 43.5869 -29.1339 44.986 -29.1339 46.385 -29.1339 47.7841 -29.1339 49.1831 -29.1339 50.5821 -29.1339 51.9812 -29.1339 53.3802 -29.1339 54.7793 -29.1339 56.1783 -29.1339 57.5774 -29.1339 58.9764 -29.1339 60.3754 -29.1339 61.7745 -29.1339 63.1735 -29.1339 64.5726 -29.1339 65.9716 -29.1339 67.3706 -29.1339 68.7697 -29.1339 70.1687 -29.1339 " />
<polyline points="29.5965 45.3628 30.9956 45.3628 32.3946 45.3628 33.7936 45.3628 35.1927 45.3628 36.5917 45.3628 37.9908 45.3628 39.3898 45.3628 40.7889 45.3628 42.1879 45.3628 43.5869 45.3628 44.986 45.3628 46.385 45.3628 47.7841 45.3628 49.1831 45.3628 50.5821 45.3628 51.9812 45.3628 53.3802 45.3628 54.7793 45.3628 56.1783 45.3628 57.5774 45.3628 58.9764 45.3628 60.3754 45.3628 61.7745 45.3628 63.1735 45.3628 64.5726 45.3628 65.9716 45.3628 67.3706 45.3628 68.7697 45.3628 70.1687 45.3628 " />
<polyline points="29.5965 -45.3628 30.9956 -45.3628 32.3946 -45.3628 33.7936 -45.3628 35.1927 -45.3628 36.5917 -45.3628 37.9908 -45.3628 39.3898 -45.3628 40.7889 -45.3628 42.1879 -45.3628 43.5869 -45.3628 44.986 -45.3628 46.385 -45.3628 47.7841 -45.3628 49.1831 -45.3628 50.5821 -45.3628 51.9812 -45.3628 53.3802 -45.3628 54.7793 -45.3628 56.1783 -45.3628 57.5774 -45.3628 58.9764 -45.3628 60.3754 -45.3628 61.7745 -45.3628 63.1735 -45.3628 64.5726 -45.3628 65.9716 -45.3628 67.3706 -45.3628 68.7697 -45.3628 70.1687 -45.3628 " />
</g>
<g>
<polyline points="115.532 37.3315 115.532 37.3315 115.532 37.3315 113.911 37.3075 112.291 37.2357 110.671 37.1169 109.051 36.9527 107.431 36.7448 105.811 36.4957 104.191 36.2084 102.571 35.8862 100.951 35.5329 99.3305 35.1526 97.7104 34.7498 96.0903 34.3293 94.4702 33.8958 92.8501 33.4546 91.23 33.0108 89.6099 32.5696 87.9898 32.1362 86.3697 31.7156 84.7496 31.3128 83.1295 30.9325 81.5094 30.5792 79.8893 30.257 78.2692 29.9697 76.6491 29.7206 75.029 29.5128 73.4089 29.3485 71.7888 29.2298 70.1687 29.158 70.1687 29.1339 70.1687 45.3628 70.1687 45.3628 71.7888 45.3691 73.4089 45.3878 75.029 45.4188 76.6491 45.4616 78.2692 45.5158 79.8893 45.5807 81.5094 45.6556 83.1295 45.7396 84.7496 45.8317 86.3697 45.9309 87.9898 46.0359 89.6099 46.1455 91.23 46.2585 92.8501 46.3736 94.4702 46.4893 96.0903 46.6043 97.7104 46.7173 99.3305 46.8269 100.951 46.9319 102.571 47.0311 104.191 47.1232 105.811 47.2072 107.431 47.2821 109.051 47.347 110.671 47.4012 112.291 47.4441 113.911 47.475 115.532 47.4937 115.532 47.5 115.532 37.3315 " />
<polyline points="115.532 -37.3315 115.532 -37.3315 115.532 -37.3315 113.911 -37.3075 112.291 -37.2357 110.671 -37.1169 109.051 -36.9527 107.431 -36.7448 105.811 -36.4957 104.191 -36.2084 102.571 -35.8862 100.951 -35.5329 99.3305 -35.1526 97.7104 -34.7498 96.0903 -34.3293 94.4702 -33.8958 92.8501 -33.4546 91.23 -33.0108 89.6099 -32.5696 87.9898 -32.1362 86.3697 -31.7156 84.7496 -31.3128 83.1295 -30.9325 81.5094 -30.5792 79.8893 -30.257 78.2692 -29.9697 76.6491 -29.7206 75.029 -29.5128 73.4089 -29.3485 71.7888 -29.2298 70.1687 -29.158 70.1687 -29.1339 70.1687 -45.3628 70.1687 -45.3628 71.7888 -45.3691 73.4089 -45.3878 75.029 -45.4188 76.6491 -45.4616 78.2692 -45.5158 79.8893 -45.5807 81.5094 -45.6556 83.1295 -45.7396 84.7496 -45.8317 86.3697 -45.9309 87.9898 -46.0359 89.6099 -46.1455 91.23 -46.2585 92.8501 -46.3736 94.4702 -46.4893 96.0903 -46.6043 97.7104 -46.7173 99.3305 -46.8269 100.951 -46.9319 102.571 -47.0311 104.191 -47.1232 105.811 -47.2072 107.431 -47.2821 109.051 -47.347 110.671 -47.4012 112.291 -47.4441 113.911 -47.475 115.532 -47.4937 115.532 -47.5 115.532 -37.3315 " />
<line x1="115.532" y1="37.3315" x2="170.212" y2="16.4991"  />
<line x1="115.532" y1="-37.3315" x2="170.212" y2="-16.4991"  />
</g>
<g>
<polyline style="stroke-width: .7px;" points="5.53714 2.94594 109.072 2.94594 115.493 15.883 " />
<polyline style="stroke-width: .7px;" points="5.53714 -2.94594 109.072 -2.94594 115.493 -15.883 " />
</g>
<g>
<polyline style="stroke-width: .7px;" points="67.5987 11.0911 71.5216 3.27607 99.135 3.27607 " />
<polyline style="stroke-width: .7px;" points="67.5987 -11.0911 71.5216 -3.27607 99.135 -3.27607 " />
</g>
<g>
<path d="M -55.8175 44.6994 C -54.2596 42.3626 -52.7018 41.5837 -51.1439 41.1299
" />
<path d="M -51.1439 41.1299 C -51.1439 41.1299 -49.5861 40.8835 -48.0282 40.8048
" />
<path d="M -48.0282 40.8048 C -48.0282 40.8048 -4.42971 48.0282 0 48.0282
" />
<path d="M -57.2549 -45.4181 C -55.4096 -42.6501 -53.5643 -41.7275 -51.7189 -41.1899
" />
<path d="M -51.7189 -41.1899 C -51.7189 -41.1899 -49.8736 -40.898 -48.0282 -40.8048
" />
<path d="M -48.0282 -40.8048 C -48.0282 -40.8048 -4.42971 -48.0282 0 -48.0282
" />
<path d="M -55.8175 44.6994 C -55.409 46.1744 -55.0006 46.7828 -54.5921 47.2484
" />
<path d="M -54.5921 47.2484 C -53.3668 48.2907 -53.3668 48.2907 -51.733 49.3114
" />
<path d="M -51.733 49.3114 C 15 56.0282 20 56.0282 115.532 47.5
" />
<path d="M -57.2549 -45.4181 C -56.8465 -46.7996 -56.438 -47.3693 -56.0296 -47.8054
" />
<path d="M -56.0296 -47.8054 C -54.8042 -48.7815 -54.8042 -48.7815 -53.1704 -49.7375
" />
<path d="M -53.1704 -49.7375 C 15 -56.0282 20 -56.0282 115.532 -47.5
" />
<path d="M 0 -19.2113 A 23.0536 23.0536 0 0 0 0 19.2113
" />
</g>
<g>
<polyline points="93.1442 14.8585 93.1442 11.9726 94.9522 11.9726 94.9522 14.8585 93.1442 14.8585 93.1442 12.4246 94.9522 12.4246 94.9522 11.9726 94.3646 11.7226 93.7318 11.7226 93.1442 11.9726 93.7318 11.7226 93.4154 8.06477 94.681 8.06477 94.3646 11.7226 94.681 8.06477 94.681 8.06477 94.681 8.0038 94.6811 7.94284 94.6815 7.88188 94.6822 7.82091 94.6834 7.75995 94.6851 7.69899 94.6875 7.63802 94.6908 7.57706 94.695 7.5161 94.7003 7.45513 94.7068 7.39417 94.7146 7.3332 94.7238 7.27224 94.7345 7.21128 94.747 7.15031 94.7612 7.08935 94.7774 7.02839 94.7956 6.96742 94.816 6.90646 94.8387 6.8455 94.8638 6.78453 94.8914 6.72357 94.9217 6.6626 94.9548 6.60164 94.9909 6.54068 95.03 6.47971 95.0722 6.41875 95.1178 6.35779 95.1667 6.29682 95.2193 6.23586 95.8463 6.23586 92.2501 6.23586 92.8772 6.23586 92.9297 6.29682 92.9786 6.35779 93.0242 6.41875 93.0665 6.47971 93.1055 6.54068 93.1416 6.60164 93.1747 6.6626 93.205 6.72357 93.2327 6.78453 93.2578 6.8455 93.2804 6.90646 93.3008 6.96742 93.319 7.02839 93.3352 7.08935 93.3495 7.15031 93.3619 7.21128 93.3727 7.27224 93.3819 7.3332 93.3896 7.39417 93.3961 7.45513 93.4014 7.5161 93.4056 7.57706 93.4089 7.63802 93.4113 7.69899 93.4131 7.75995 93.4142 7.82091 93.4149 7.88188 93.4153 7.94284 93.4154 8.0038 93.4154 8.06477 93.4154 8.06477 93.4154 8.0038 93.4153 7.94284 93.4149 7.88188 93.4142 7.82091 93.4131 7.75995 93.4113 7.69899 93.4089 7.63802 93.4056 7.57706 93.4014 7.5161 93.3961 7.45513 93.3896 7.39417 93.3819 7.3332 93.3727 7.27224 93.3619 7.21128 93.3495 7.15031 93.3352 7.08935 93.319 7.02839 93.3008 6.96742 93.2804 6.90646 93.2578 6.8455 93.2327 6.78453 93.205 6.72357 93.1747 6.6626 93.1416 6.60164 93.1055 6.54068 93.0665 6.47971 93.0242 6.41875 92.9786 6.35779 92.9297 6.29682 92.8772 6.23586 92.2501 6.23586 95.8463 6.23586 95.8463 5.20048 92.2501 5.20048 92.2501 6.23586 " />
<polyline points="93.1442 -14.8585 93.1442 -11.9726 94.9522 -11.9726 94.9522 -14.8585 93.1442 -14.8585 93.1442 -12.4246 94.9522 -12.4246 94.9522 -11.9726 94.3646 -11.7226 93.7318 -11.7226 93.1442 -11.9726 93.7318 -11.7226 93.4154 -8.06477 94.681 -8.06477 94.3646 -11.7226 94.681 -8.06477 94.681 -8.06477 94.681 -8.0038 94.6811 -7.94284 94.6815 -7.88188 94.6822 -7.82091 94.6834 -7.75995 94.6851 -7.69899 94.6875 -7.63802 94.6908 -7.57706 94.695 -7.5161 94.7003 -7.45513 94.7068 -7.39417 94.7146 -7.3332 94.7238 -7.27224 94.7345 -7.21128 94.747 -7.15031 94.7612 -7.08935 94.7774 -7.02839 94.7956 -6.96742 94.816 -6.90646 94.8387 -6.8455 94.8638 -6.78453 94.8914 -6.72357 94.9217 -6.6626 94.9548 -6.60164 94.9909 -6.54068 95.03 -6.47971 95.0722 -6.41875 95.1178 -6.35779 95.1667 -6.29682 95.2193 -6.23586 95.8463 -6.23586 92.2501 -6.23586 92.8772 -6.23586 92.9297 -6.29682 92.9786 -6.35779 93.0242 -6.41875 93.0665 -6.47971 93.1055 -6.54068 93.1416 -6.60164 93.1747 -6.6626 93.205 -6.72357 93.2327 -6.78453 93.2578 -6.8455 93.2804 -6.90646 93.3008 -6.96742 93.319 -7.02839 93.3352 -7.08935 93.3495 -7.15031 93.3619 -7.21128 93.3727 -7.27224 93.3819 -7.3332 93.3896 -7.39417 93.3961 -7.45513 93.4014 -7.5161 93.4056 -7.57706 93.4089 -7.63802 93.4113 -7.69899 93.4131 -7.75995 93.4142 -7.82091 93.4149 -7.88188 93.4153 -7.94284 93.4154 -8.0038 93.4154 -8.06477 93.4154 -8.06477 93.4154 -8.0038 93.4153 -7.94284 93.4149 -7.88188 93.4142 -7.82091 93.4131 -7.75995 93.4113 -7.69899 93.4089 -7.63802 93.4056 -7.57706 93.4014 -7.5161 93.3961 -7.45513 93.3896 -7.39417 93.3819 -7.3332 93.3727 -7.27224 93.3619 -7.21128 93.3495 -7.15031 93.3352 -7.08935 93.319 -7.02839 93.3008 -6.96742 93.2804 -6.90646 93.2578 -6.8455 93.2327 -6.78453 93.205 -6.72357 93.1747 -6.6626 93.1416 -6.60164 93.1055 -6.54068 93.0665 -6.47971 93.0242 -6.41875 92.9786 -6.35779 92.9297 -6.29682 92.8772 -6.23586 92.2501 -6.23586 95.8463 -6.23586 95.8463 -5.20048 92.2501 -5.20048 92.2501 -6.23586 " />
<polyline points="97.6102 15.2554 97.6102 12.8213 99.135 12.8213 99.135 15.2554 97.6102 15.2554 97.6102 13.2025 99.135 13.2025 99.135 12.8213 98.6395 12.5713 98.1058 12.5713 97.6102 12.8213 98.1058 12.5713 97.8389 8.48349 98.9063 8.48349 98.6395 12.5713 98.9063 8.48349 98.9063 8.48349 98.9063 8.41536 98.9065 8.34723 98.9068 8.2791 98.9076 8.21097 98.9088 8.14284 98.9107 8.07471 98.9133 8.00658 98.9167 7.93845 98.9212 7.87032 98.9267 7.80219 98.9336 7.73406 98.9418 7.66593 98.9515 7.5978 98.9629 7.52967 98.976 7.46154 98.9911 7.39341 99.0082 7.32528 99.0274 7.25715 99.049 7.18902 99.0729 7.12089 99.0995 7.05276 99.1287 6.98463 99.1607 6.9165 99.1957 6.84837 99.2338 6.78024 99.2751 6.71211 99.3197 6.64397 99.3679 6.57584 99.4196 6.50771 99.4751 6.43958 99.4751 6.43958 97.2701 6.43958 97.2701 6.43958 97.3256 6.50771 97.3774 6.57584 97.4255 6.64397 97.4701 6.71211 97.5114 6.78024 97.5495 6.84837 97.5845 6.9165 97.6166 6.98463 97.6458 7.05276 97.6723 7.12089 97.6963 7.18902 97.7178 7.25715 97.7371 7.32528 97.7542 7.39341 97.7692 7.46154 97.7823 7.52967 97.7937 7.5978 97.8034 7.66593 97.8117 7.73406 97.8185 7.80219 97.8241 7.87032 97.8285 7.93845 97.832 8.00658 97.8346 8.07471 97.8364 8.14284 97.8376 8.21097 97.8384 8.2791 97.8388 8.34723 97.8389 8.41536 97.8389 8.48349 97.8389 8.48349 97.8389 8.41536 97.8388 8.34723 97.8384 8.2791 97.8376 8.21097 97.8364 8.14284 97.8346 8.07471 97.832 8.00658 97.8285 7.93845 97.8241 7.87032 97.8185 7.80219 97.8117 7.73406 97.8034 7.66593 97.7937 7.5978 97.7823 7.52967 97.7692 7.46154 97.7542 7.39341 97.7371 7.32528 97.7178 7.25715 97.6963 7.18902 97.6723 7.12089 97.6458 7.05276 97.6166 6.98463 97.5845 6.9165 97.5495 6.84837 97.5114 6.78024 97.4701 6.71211 97.4255 6.64397 97.3774 6.57584 97.3256 6.50771 97.2701 6.43958 97.2701 6.43958 99.4751 6.43958 99.4751 5.33937 97.2701 5.33937 97.2701 6.43958 " />
<polyline points="97.6102 -15.2554 97.6102 -12.8213 99.135 -12.8213 99.135 -15.2554 97.6102 -15.2554 97.6102 -13.2025 99.135 -13.2025 99.135 -12.8213 98.6395 -12.5713 98.1058 -12.5713 97.6102 -12.8213 98.1058 -12.5713 97.8389 -8.48349 98.9063 -8.48349 98.6395 -12.5713 98.9063 -8.48349 98.9063 -8.48349 98.9063 -8.41536 98.9065 -8.34723 98.9068 -8.2791 98.9076 -8.21097 98.9088 -8.14284 98.9107 -8.07471 98.9133 -8.00658 98.9167 -7.93845 98.9212 -7.87032 98.9267 -7.80219 98.9336 -7.73406 98.9418 -7.66593 98.9515 -7.5978 98.9629 -7.52967 98.976 -7.46154 98.9911 -7.39341 99.0082 -7.32528 99.0274 -7.25715 99.049 -7.18902 99.0729 -7.12089 99.0995 -7.05276 99.1287 -6.98463 99.1607 -6.9165 99.1957 -6.84837 99.2338 -6.78024 99.2751 -6.71211 99.3197 -6.64397 99.3679 -6.57584 99.4196 -6.50771 99.4751 -6.43958 99.4751 -6.43958 97.2701 -6.43958 97.2701 -6.43958 97.3256 -6.50771 97.3774 -6.57584 97.4255 -6.64397 97.4701 -6.71211 97.5114 -6.78024 97.5495 -6.84837 97.5845 -6.9165 97.6166 -6.98463 97.6458 -7.05276 97.6723 -7.12089 97.6963 -7.18902 97.7178 -7.25715 97.7371 -7.32528 97.7542 -7.39341 97.7692 -7.46154 97.7823 -7.52967 97.7937 -7.5978 97.8034 -7.66593 97.8117 -7.73406 97.8185 -7.80219 97.8241 -7.87032 97.8285 -7.93845 97.832 -8.00658 97.8346 -8.07471 97.8364 -8.14284 97.8376 -8.21097 97.8384 -8.2791 97.8388 -8.34723 97.8389 -8.41536 97.8389 -8.48349 97.8389 -8.48349 97.8389 -8.41536 97.8388 -8.34723 97.8384 -8.2791 97.8376 -8.21097 97.8364 -8.14284 97.8346 -8.07471 97.832 -8.00658 97.8285 -7.93845 97.8241 -7.87032 97.8185 -7.80219 97.8117 -7.73406 97.8034 -7.66593 97.7937 -7.5978 97.7823 -7.52967 97.7692 -7.46154 97.7542 -7.39341 97.7371 -7.32528 97.7178 -7.25715 97.6963 -7.18902 97.6723 -7.12089 97.6458 -7.05276 97.6166 -6.98463 97.5845 -6.9165 97.5495 -6.84837 97.5114 -6.78024 97.4701 -6.71211 97.4255 -6.64397 97.3774 -6.57584 97.3256 -6.50771 97.2701 -6.43958 97.2701 -6.43958 99.4751 -6.43958 99.4751 -5.33937 97.2701 -5.33937 97.2701 -6.43958 " />
</g>
<g>
<polyline points="103.266 15.883 103.266 14.5345 103.266 14.5345 104.345 14.5345 104.345 14.5345 104.345 15.883 104.345 15.883 103.266 15.883 103.266 14.8042 104.345 14.8042 104.345 14.5345 103.93 14.2845 103.93 14.2845 103.68 14.2845 103.266 14.5345 103.266 14.5345 103.68 14.2845 103.68 7.74404 103.68 7.74404 103.93 7.74404 103.93 7.74404 103.93 14.2845 103.93 7.74404 104.226 7.24404 104.226 7.24404 103.384 7.24404 103.384 7.24404 103.68 7.74404 103.384 7.24404 103.384 5.55904 103.384 5.55904 104.226 5.55904 104.226 5.55904 104.226 7.24404 103.93 7.74404 103.93 14.2845 104.345 14.5345 " />
<polyline points="103.266 -15.883 103.266 -14.5345 103.266 -14.5345 104.345 -14.5345 104.345 -14.5345 104.345 -15.883 104.345 -15.883 103.266 -15.883 103.266 -14.8042 104.345 -14.8042 104.345 -14.5345 103.93 -14.2845 103.93 -14.2845 103.68 -14.2845 103.266 -14.5345 103.266 -14.5345 103.68 -14.2845 103.68 -7.74404 103.68 -7.74404 103.93 -7.74404 103.93 -7.74404 103.93 -14.2845 103.93 -7.74404 104.226 -7.24404 104.226 -7.24404 103.384 -7.24404 103.384 -7.24404 103.68 -7.74404 103.384 -7.24404 103.384 -5.55904 103.384 -5.55904 104.226 -5.55904 104.226 -5.55904 104.226 -7.24404 103.93 -7.74404 103.93 -14.2845 104.345 -14.5345 " />
<polyline points="106.943 15.883 106.943 14.2339 106.943 14.2339 108.18 14.2339 108.18 14.2339 108.18 15.883 108.18 15.883 106.943 15.883 106.943 14.5431 108.18 14.5431 108.18 14.2339 107.686 13.9839 107.686 13.9839 107.436 13.9839 106.943 14.2339 106.943 14.2339 107.436 13.9839 107.436 7.72404 107.436 7.72404 107.686 7.72404 107.686 7.72404 107.686 13.9839 107.686 7.72404 107.978 7.22404 107.978 7.22404 107.145 7.22404 107.145 7.22404 107.436 7.72404 107.145 7.22404 107.145 5.55904 107.145 5.55904 107.978 5.55904 107.978 5.55904 107.978 7.22404 107.686 7.72404 107.686 13.9839 108.18 14.2339 " />
<polyline points="106.943 -15.883 106.943 -14.2339 106.943 -14.2339 108.18 -14.2339 108.18 -14.2339 108.18 -15.883 108.18 -15.883 106.943 -15.883 106.943 -14.5431 108.18 -14.5431 108.18 -14.2339 107.686 -13.9839 107.686 -13.9839 107.436 -13.9839 106.943 -14.2339 106.943 -14.2339 107.436 -13.9839 107.436 -7.72404 107.436 -7.72404 107.686 -7.72404 107.686 -7.72404 107.686 -13.9839 107.686 -7.72404 107.978 -7.22404 107.978 -7.22404 107.145 -7.22404 107.145 -7.22404 107.436 -7.72404 107.145 -7.22404 107.145 -5.55904 107.145 -5.55904 107.978 -5.55904 107.978 -5.55904 107.978 -7.22404 107.686 -7.72404 107.686 -13.9839 108.18 -14.2339 " />
<polyline points="110.897 15.883 110.897 13.828 110.897 13.828 112.347 13.828 112.347 13.828 112.347 15.883 112.347 15.883 110.897 15.883 110.897 14.1907 112.347 14.1907 112.347 13.828 111.747 13.578 111.747 13.578 111.497 13.578 110.897 13.828 110.897 13.828 111.497 13.578 111.497 7.72404 111.497 7.72404 111.747 7.72404 111.747 7.72404 111.747 13.578 111.747 7.72404 112.038 7.22404 112.038 7.22404 111.206 7.22404 111.206 7.22404 111.497 7.72404 111.206 7.22404 111.206 5.55904 111.206 5.55904 112.038 5.55904 112.038 5.55904 112.038 7.22404 111.747 7.72404 111.747 13.578 112.347 13.828 " />
<polyline points="110.897 -15.883 110.897 -13.828 110.897 -13.828 112.347 -13.828 112.347 -13.828 112.347 -15.883 112.347 -15.883 110.897 -15.883 110.897 -14.1907 112.347 -14.1907 112.347 -13.828 111.747 -13.578 111.747 -13.578 111.497 -13.578 110.897 -13.828 110.897 -13.828 111.497 -13.578 111.497 -7.72404 111.497 -7.72404 111.747 -7.72404 111.747 -7.72404 111.747 -13.578 111.747 -7.72404 112.038 -7.22404 112.038 -7.22404 111.206 -7.22404 111.206 -7.22404 111.497 -7.72404 111.206 -7.22404 111.206 -5.55904 111.206 -5.55904 112.038 -5.55904 112.038 -5.55904 112.038 -7.22404 111.747 -7.72404 111.747 -13.578 112.347 -13.828 " />
<polyline points="115.214 15.883 115.214 13.272 115.214 13.272 116.955 13.272 116.955 13.272 116.955 15.883 116.955 15.883 115.214 15.883 115.214 13.7072 116.955 13.7072 116.955 13.272 116.21 13.022 116.21 13.022 115.96 13.022 115.214 13.272 115.214 13.272 115.96 13.022 115.96 7.72404 115.96 7.72404 116.21 7.72404 116.21 7.72404 116.21 13.022 116.21 7.72404 116.501 7.22404 116.501 7.22404 115.668 7.22404 115.668 7.22404 115.96 7.72404 115.668 7.22404 115.668 5.55904 115.668 5.55904 116.501 5.55904 116.501 5.55904 116.501 7.22404 116.21 7.72404 116.21 13.022 116.955 13.272 " />
<polyline points="115.214 -15.883 115.214 -13.272 115.214 -13.272 116.955 -13.272 116.955 -13.272 116.955 -15.883 116.955 -15.883 115.214 -15.883 115.214 -13.7072 116.955 -13.7072 116.955 -13.272 116.21 -13.022 116.21 -13.022 115.96 -13.022 115.214 -13.272 115.214 -13.272 115.96 -13.022 115.96 -7.72404 115.96 -7.72404 116.21 -7.72404 116.21 -7.72404 116.21 -13.022 116.21 -7.72404 116.501 -7.22404 116.501 -7.22404 115.668 -7.22404 115.668 -7.22404 115.96 -7.72404 115.668 -7.22404 115.668 -5.55904 115.668 -5.55904 116.501 -5.55904 116.501 -5.55904 116.501 -7.22404 116.21 -7.72404 116.21 -13.022 116.955 -13.272 " />
</g>
<g>
<polygon style="fill: yellow;" points="118.53 15.883 118.53 27.3016 126.405 27.3016 126.405 15.883 " />
<polygon style="fill: yellow;" points="118.53 -15.883 118.53 -27.3016 126.405 -27.3016 126.405 -15.883 " />
</g>
<g transform="rotate(45,58.8585,0)" >
<circle style="stroke: green;" cx="58.8585" cy="0" r="0.909867"/>
<line x1="58.8585" y1="-0.909867" x2="58.8585" y2="0.909867" style="stroke: green;"  />
<line x1="57.9486" y1="0" x2="59.7684" y2="0" style="stroke: green;"  />
</g></g></svg>
