<?xml version="1.0" standalone="no"?>
<svg  version="1.1"
 baseProfile="full"
viewBox="-81.8003 -67.2339 294.544 134.468" width="900" height="500" style="stroke: black; fill: none; stroke-width: .2;"
xmlns="http://www.w3.org/2000/svg"
xmlns:xlink="http://www.w3.org/1999/xlink"
xmlns:ev="http://www.w3.org/2001/xml-events">
<line x1="-70" y1="0" x2="201" y2="0" style="stroke-dasharray: 3, 1, 1, 1; stroke: blue;"  />
<line x1="-70" y1="62" x2="201" y2="62" />
<g style="font-size: 4.48226px; text-anchor: middle;">
<line x1="-60" y1="62" x2="-60" y2="60.4312" />
<text x="-60" y="66.4823" style="fill: black;" >-60</text>
<line x1="-50" y1="62" x2="-50" y2="60.4312" />
<text x="-50" y="66.4823" style="fill: black;" >-50</text>
<line x1="-40" y1="62" x2="-40" y2="60.4312" />
<text x="-40" y="66.4823" style="fill: black;" >-40</text>
<line x1="-30" y1="62" x2="-30" y2="60.4312" />
<text x="-30" y="66.4823" style="fill: black;" >-30</text>
<line x1="-20" y1="62" x2="-20" y2="60.4312" />
<text x="-20" y="66.4823" style="fill: black;" >-20</text>
<line x1="-10" y1="62" x2="-10" y2="60.4312" />
<text x="-10" y="66.4823" style="fill: black;" >-10</text>
<line x1="0" y1="62" x2="0" y2="60.4312" />
<text x="0" y="66.4823" style="fill: black;" >0</text>
<line x1="10" y1="62" x2="10" y2="60.4312" />
<text x="10" y="66.4823" style="fill: black;" >10</text>
<line x1="20" y1="62" x2="20" y2="60.4312" />
<text x="20" y="66.4823" style="fill: black;" >20</text>
<line x1="30" y1="62" x2="30" y2="60.4312" />
<text x="30" y="66.4823" style="fill: black;" >30</text>
<line x1="40" y1="62" x2="40" y2="60.4312" />
<text x="40" y="66.4823" style="fill: black;" >40</text>
<line x1="50" y1="62" x2="50" y2="60.4312" />
<text x="50" y="66.4823" style="fill: black;" >50</text>
<line x1="60" y1="62" x2="60" y2="60.4312" />
<text x="60" y="66.4823" style="fill: black;" >60</text>
<line x1="70" y1="62" x2="70" y2="60.4312" />
<text x="70" y="66.4823" style="fill: black;" >70</text>
<line x1="80" y1="62" x2="80" y2="60.4312" />
<text x="80" y="66.4823" style="fill: black;" >80</text>
<line x1="90" y1="62" x2="90" y2="60.4312" />
<text x="90" y="66.4823" style="fill: black;" >90</text>
<line x1="100" y1="62" x2="100" y2="60.4312" />
<text x="100" y="66.4823" style="fill: black;" >100</text>
<line x1="110" y1="62" x2="110" y2="60.4312" />
<text x="110" y="66.4823" style="fill: black;" >110</text>
<line x1="120" y1="62" x2="120" y2="60.4312" />
<text x="120" y="66.4823" style="fill: black;" >120</text>
<line x1="130" y1="62" x2="130" y2="60.4312" />
<text x="130" y="66.4823" style="fill: black;" >130</text>
<line x1="140" y1="62" x2="140" y2="60.4312" />
<text x="140" y="66.4823" style="fill: black;" >140</text>
<line x1="150" y1="62" x2="150" y2="60.4312" />
<text x="150" y="66.4823" style="fill: black;" >150</text>
<line x1="160" y1="62" x2="160" y2="60.4312" />
<text x="160" y="66.4823" style="fill: black;" >160</text>
<line x1="170" y1="62" x2="170" y2="60.4312" />
<text x="170" y="66.4823" style="fill: black;" >170</text>
<line x1="180" y1="62" x2="180" y2="60.4312" />
<text x="180" y="66.4823" style="fill: black;" >180</text>
<line x1="190" y1="62" x2="190" y2="60.4312" />
<text x="190" y="66.4823" style="fill: black;" >190</text>
<line x1="200" y1="62" x2="200" y2="60.4312" />
<text x="200" y="66.4823" style="fill: black;" >200</text>
</g>
<g style="font-size: 4.48226px; text-anchor: end;">
<line x1="-70" y1="62" x2="-70" y2="-62" />
<line x1="-70" y1="54.25" x2="-68.5273" y2="54.25" />
<text x="-71.4727" y="54.25" style="baseline-shift:-35%; fill:black;" >-54</text>
<line x1="-70" y1="46.5" x2="-68.5273" y2="46.5" />
<text x="-71.4727" y="46.5" style="baseline-shift:-35%; fill:black;" >-47</text>
<line x1="-70" y1="38.75" x2="-68.5273" y2="38.75" />
<text x="-71.4727" y="38.75" style="baseline-shift:-35%; fill:black;" >-39</text>
<line x1="-70" y1="31" x2="-68.5273" y2="31" />
<text x="-71.4727" y="31" style="baseline-shift:-35%; fill:black;" >-31</text>
<line x1="-70" y1="23.25" x2="-68.5273" y2="23.25" />
<text x="-71.4727" y="23.25" style="baseline-shift:-35%; fill:black;" >-23</text>
<line x1="-70" y1="15.5" x2="-68.5273" y2="15.5" />
<text x="-71.4727" y="15.5" style="baseline-shift:-35%; fill:black;" >-16</text>
<line x1="-70" y1="7.75" x2="-68.5273" y2="7.75" />
<text x="-71.4727" y="7.75" style="baseline-shift:-35%; fill:black;" >-8</text>
<line x1="-70" y1="-0" x2="-68.5273" y2="-0" />
<text x="-71.4727" y="-0" style="baseline-shift:-35%; fill:black;" >0</text>
<line x1="-70" y1="-7.75" x2="-68.5273" y2="-7.75" />
<text x="-71.4727" y="-7.75" style="baseline-shift:-35%; fill:black;" >8</text>
<line x1="-70" y1="-15.5" x2="-68.5273" y2="-15.5" />
<text x="-71.4727" y="-15.5" style="baseline-shift:-35%; fill:black;" >16</text>
<line x1="-70" y1="-23.25" x2="-68.5273" y2="-23.25" />
<text x="-71.4727" y="-23.25" style="baseline-shift:-35%; fill:black;" >23</text>
<line x1="-70" y1="-31" x2="-68.5273" y2="-31" />
<text x="-71.4727" y="-31" style="baseline-shift:-35%; fill:black;" >31</text>
<line x1="-70" y1="-38.75" x2="-68.5273" y2="-38.75" />
<text x="-71.4727" y="-38.75" style="baseline-shift:-35%; fill:black;" >39</text>
<line x1="-70" y1="-46.5" x2="-68.5273" y2="-46.5" />
<text x="-71.4727" y="-46.5" style="baseline-shift:-35%; fill:black;" >47</text>
<line x1="-70" y1="-54.25" x2="-68.5273" y2="-54.25" />
<text x="-71.4727" y="-54.25" style="baseline-shift:-35%; fill:black;" >54</text>
</g>
<g transform="scale(1,-1)">
<g>
<polygon points="0 19.2113 0 48.0282 22.8149 45.3628 22.8149 45.3628 22.8149 29.1339 22.8149 29.1339 22.8149 24.8596 " />
<polygon points="0 -19.2113 0 -48.0282 22.8149 -45.3628 22.8149 -45.3628 22.8149 -29.1339 22.8149 -29.1339 22.8149 -24.8596 " />
<polygon style="fill: black;" points="0 19.2113 0 48.0282 6.26455 47.2964 6.26455 20.7622 " />
<polygon style="fill: black;" points="0 -19.2113 0 -48.0282 6.26455 -47.2964 6.26455 -20.7622 " />
<polyline style="fill: black;" points="-3.13228 48.3942 -3.13228 51.3942 9.39683 49.9304 9.39683 46.9304 -3.13228 48.3942 " />
<polyline style="fill: black;" points="-3.13228 -48.3942 -3.13228 -51.3942 9.39683 -49.9304 9.39683 -46.9304 -3.13228 -48.3942 " />
<polygon style="fill: red;" points="-3.13228 48.3942 -3.13228 51.3942 9.39683 49.9304 9.39683 46.9304 -3.13228 48.3942 " />
<polygon style="fill: red;" points="-3.13228 -48.3942 -3.13228 -51.3942 9.39683 -49.9304 9.39683 -46.9304 -3.13228 -48.3942 " />
<polygon style="fill: white;" points="6.26455 NaN 6.26455 NaN 13.4688 NaN 13.4688 NaN " />
<polygon style="fill: white;" points="6.26455 NaN 6.26455 NaN 13.4688 NaN 13.4688 NaN " />
</g>
<g>
<polygon points="0 12.9206 0 19.2113 6.26455 19.2113 6.26455 12.9206 0 12.9206 0 14.1251 6.26455 14.1251 6.26455 12.9206 " />
<polygon points="0 -12.9206 0 -19.2113 6.26455 -19.2113 6.26455 -12.9206 0 -12.9206 0 -14.1251 6.26455 -14.1251 6.26455 -12.9206 " />
<line x1="6.26455" y1="19.2113" x2="6.26455" y2="24.8596"  />
<line x1="6.26455" y1="-19.2113" x2="6.26455" y2="-24.8596"  />
</g>
<g>
<polygon style="fill: yellow;" points="15.7585 29.1339 15.7585 NaN 23.9598 45.3628 23.9598 29.1339 " />
<polygon style="fill: yellow;" points="15.7585 -29.1339 15.7585 NaN 23.9598 -45.3628 23.9598 -29.1339 " />
</g>
<g>
<line x1="22.8149" y1="24.7002" x2="22.8149" y2="29.2933"  />
<line x1="22.8149" y1="-24.7002" x2="22.8149" y2="-29.2933"  />
<polyline points="22.8149 24.7002 22.8941 24.6998 22.9733 24.6985 23.0525 24.6964 23.1317 24.6935 23.2109 24.6898 23.2901 24.6854 23.3693 24.6803 23.4484 24.6745 23.5276 24.6682 23.6068 24.6614 23.686 24.6541 23.7652 24.6465 23.8444 24.6386 23.9236 24.6306 24.0028 24.6225 24.082 24.6143 24.1612 24.6063 24.2404 24.5984 24.3195 24.5908 24.3987 24.5836 24.4779 24.5767 24.5571 24.5704 24.6363 24.5647 24.7155 24.5595 24.7947 24.5551 24.8739 24.5514 24.9531 24.5485 25.0323 24.5464 25.1114 24.5451 " />
<polyline points="22.8149 -24.7002 22.8941 -24.6998 22.9733 -24.6985 23.0525 -24.6964 23.1317 -24.6935 23.2109 -24.6898 23.2901 -24.6854 23.3693 -24.6803 23.4484 -24.6745 23.5276 -24.6682 23.6068 -24.6614 23.686 -24.6541 23.7652 -24.6465 23.8444 -24.6386 23.9236 -24.6306 24.0028 -24.6225 24.082 -24.6143 24.1612 -24.6063 24.2404 -24.5984 24.3195 -24.5908 24.3987 -24.5836 24.4779 -24.5767 24.5571 -24.5704 24.6363 -24.5647 24.7155 -24.5595 24.7947 -24.5551 24.8739 -24.5514 24.9531 -24.5485 25.0323 -24.5464 25.1114 -24.5451 " />
<polyline points="22.8149 29.2933 22.8941 29.2922 22.9733 29.2888 23.0525 29.2831 23.1317 29.2753 23.2109 29.2654 23.2901 29.2535 23.3693 29.2397 23.4484 29.2243 23.5276 29.2073 23.6068 29.189 23.686 29.1696 23.7652 29.1492 23.8444 29.1281 23.9236 29.1065 24.0028 29.0847 24.082 29.0629 24.1612 29.0413 24.2404 29.0202 24.3195 28.9999 24.3987 28.9804 24.4779 28.9621 24.5571 28.9451 24.6363 28.9297 24.7155 28.9159 24.7947 28.904 24.8739 28.8941 24.9531 28.8863 25.0323 28.8807 25.1114 28.8772 " />
<polyline points="22.8149 -29.2933 22.8941 -29.2922 22.9733 -29.2888 23.0525 -29.2831 23.1317 -29.2753 23.2109 -29.2654 23.2901 -29.2535 23.3693 -29.2397 23.4484 -29.2243 23.5276 -29.2073 23.6068 -29.189 23.686 -29.1696 23.7652 -29.1492 23.8444 -29.1281 23.9236 -29.1065 24.0028 -29.0847 24.082 -29.0629 24.1612 -29.0413 24.2404 -29.0202 24.3195 -28.9999 24.3987 -28.9804 24.4779 -28.9621 24.5571 -28.9451 24.6363 -28.9297 24.7155 -28.9159 24.7947 -28.904 24.8739 -28.8941 24.9531 -28.8863 25.0323 -28.8807 25.1114 -28.8772 " />
</g>
<g>
<line x1="25.1114" y1="24.5447" x2="25.1114" y2="28.8761"  />
<line x1="25.1114" y1="-24.5447" x2="25.1114" y2="-28.8761"  />
<polyline points="25.1114 28.8761 25.1114 28.8761 28.3263 28.8761 32.831 26.4698 37.2646 24.0634 41.5211 21.6571 " />
<polyline points="25.1114 -28.8761 25.1114 -28.8761 28.3263 -28.8761 32.831 -26.4698 37.2646 -24.0634 41.5211 -21.6571 " />
<polyline points="25.1114 24.5447 25.1114 24.5447 28.3263 24.5447 32.831 22.6803 37.2646 20.6308 41.5211 18.4422 " />
<polyline points="25.1114 -24.5447 25.1114 -24.5447 28.3263 -24.5447 32.831 -22.6803 37.2646 -20.6308 41.5211 -18.4422 " />
<line x1="41.5211" y1="18.4422" x2="41.5211" y2="21.6571"  />
<line x1="41.5211" y1="-18.4422" x2="41.5211" y2="-21.6571"  />
<polygon style="fill: white;" points="25.1114 28.8761 25.1114 24.5447 27.9991 24.5447 27.9991 28.8761 " />
<polygon style="fill: white;" points="25.1114 -28.8761 25.1114 -24.5447 27.9991 -24.5447 27.9991 -28.8761 " />
<polygon style="fill: black;" points="28.3263 28.8761 28.3263 24.5447 30.2514 23.748 30.2514 27.8477 " />
<polygon style="fill: black;" points="28.3263 -28.8761 28.3263 -24.5447 30.2514 -23.748 30.2514 -27.8477 " />
<polygon style="fill: white;" points="30.5787 27.6729 30.5787 23.6125 32.5037 22.8158 32.5037 26.6446 " />
<polygon style="fill: white;" points="30.5787 -27.6729 30.5787 -23.6125 32.5037 -22.8158 32.5037 -26.6446 " />
<polygon style="fill: black;" points="32.831 26.4698 32.831 22.6803 34.7257 21.8045 34.7257 25.4414 " />
<polygon style="fill: black;" points="32.831 -26.4698 32.831 -22.6803 34.7257 -21.8045 34.7257 -25.4414 " />
<polygon style="fill: white;" points="35.0478 25.2666 35.0478 21.6556 36.9425 20.7797 36.9425 24.2382 " />
<polygon style="fill: white;" points="35.0478 -25.2666 35.0478 -21.6556 36.9425 -20.7797 36.9425 -24.2382 " />
<polygon style="fill: black;" points="37.2646 24.0634 37.2646 20.6308 39.2261 19.6222 39.2261 22.9545 " />
<polygon style="fill: black;" points="37.2646 -24.0634 37.2646 -20.6308 39.2261 -19.6222 39.2261 -22.9545 " />
<polygon style="fill: white;" points="39.5596 22.766 39.5596 19.4508 41.5211 18.4422 41.5211 21.6571 " />
<polygon style="fill: white;" points="39.5596 -22.766 39.5596 -19.4508 41.5211 -18.4422 41.5211 -21.6571 " />
</g>
<g>
<polygon points="28.3263 22.5912 28.3263 22.6803 30.2514 22.6803 30.2514 22.5912 28.3263 22.5912 28.3263 23.7802 30.2514 23.7802 30.2514 22.5912 " />
<polygon points="28.3263 -22.5912 28.3263 -22.6803 30.2514 -22.6803 30.2514 -22.5912 28.3263 -22.5912 28.3263 -23.7802 30.2514 -23.7802 30.2514 -22.5912 " />
<line x1="28.3263" y1="22.6803" x2="28.3263" y2="24.5447"  />
<line x1="28.3263" y1="-22.6803" x2="28.3263" y2="-24.5447"  />
<polygon points="32.831 20.9109 32.831 20.6308 34.7257 20.6308 34.7257 20.9109 32.831 20.9109 32.831 22.0115 34.7257 22.0115 34.7257 20.9109 " />
<polygon points="32.831 -20.9109 32.831 -20.6308 34.7257 -20.6308 34.7257 -20.9109 32.831 -20.9109 32.831 -22.0115 34.7257 -22.0115 34.7257 -20.9109 " />
<line x1="32.831" y1="20.6308" x2="32.831" y2="22.6803"  />
<line x1="32.831" y1="-20.6308" x2="32.831" y2="-22.6803"  />
<polygon points="37.2646 19.0237 37.2646 18.4422 39.2261 18.4422 39.2261 19.0237 37.2646 19.0237 37.2646 20.0249 39.2261 20.0249 39.2261 19.0237 " />
<polygon points="37.2646 -19.0237 37.2646 -18.4422 39.2261 -18.4422 39.2261 -19.0237 37.2646 -19.0237 37.2646 -20.0249 39.2261 -20.0249 39.2261 -19.0237 " />
<line x1="37.2646" y1="18.4422" x2="37.2646" y2="20.6308"  />
<line x1="37.2646" y1="-18.4422" x2="37.2646" y2="-20.6308"  />
</g>
<g>
<line x1="41.5211" y1="18.4422" x2="41.5211" y2="21.6571"  />
<line x1="41.5211" y1="-18.4422" x2="41.5211" y2="-21.6571"  />
<polyline points="41.5211 18.4422 41.7428 18.4254 41.9645 18.3753 42.1862 18.2925 42.408 18.1777 42.6297 18.0323 42.8514 17.8579 43.0731 17.6564 43.2948 17.4299 43.5165 17.1811 43.7383 16.9125 43.96 16.6272 44.1817 16.3282 44.4034 16.0189 44.6251 15.7026 44.8468 15.3828 45.0685 15.063 45.2903 14.7467 45.512 14.4374 45.7337 14.1384 45.9554 13.8531 46.1771 13.5845 46.3988 13.3357 46.6206 13.1092 46.8423 12.9077 47.064 12.7333 47.2857 12.5879 47.5074 12.4731 47.7291 12.3902 47.9509 12.3401 " />
<polyline points="41.5211 -18.4422 41.7428 -18.4254 41.9645 -18.3753 42.1862 -18.2925 42.408 -18.1777 42.6297 -18.0323 42.8514 -17.8579 43.0731 -17.6564 43.2948 -17.4299 43.5165 -17.1811 43.7383 -16.9125 43.96 -16.6272 44.1817 -16.3282 44.4034 -16.0189 44.6251 -15.7026 44.8468 -15.3828 45.0685 -15.063 45.2903 -14.7467 45.512 -14.4374 45.7337 -14.1384 45.9554 -13.8531 46.1771 -13.5845 46.3988 -13.3357 46.6206 -13.1092 46.8423 -12.9077 47.064 -12.7333 47.2857 -12.5879 47.5074 -12.4731 47.7291 -12.3902 47.9509 -12.3401 " />
<polyline points="41.5211 21.6571 41.7428 21.6437 41.9645 21.6036 42.1862 21.5374 42.408 21.4457 42.6297 21.3295 42.8514 21.1901 43.0731 21.029 43.2948 20.848 43.5165 20.6491 43.7383 20.4344 43.96 20.2064 44.1817 19.9674 44.4034 19.7202 44.6251 19.4674 44.8468 19.2118 45.0685 18.9562 45.2903 18.7034 45.512 18.4562 45.7337 18.2172 45.9554 17.9892 46.1771 17.7745 46.3988 17.5756 46.6206 17.3946 46.8423 17.2335 47.064 17.0941 47.2857 16.9779 47.5074 16.8862 47.7291 16.82 47.9509 16.7799 " />
<polyline points="41.5211 -21.6571 41.7428 -21.6437 41.9645 -21.6036 42.1862 -21.5374 42.408 -21.4457 42.6297 -21.3295 42.8514 -21.1901 43.0731 -21.029 43.2948 -20.848 43.5165 -20.6491 43.7383 -20.4344 43.96 -20.2064 44.1817 -19.9674 44.4034 -19.7202 44.6251 -19.4674 44.8468 -19.2118 45.0685 -18.9562 45.2903 -18.7034 45.512 -18.4562 45.7337 -18.2172 45.9554 -17.9892 46.1771 -17.7745 46.3988 -17.5756 46.6206 -17.3946 46.8423 -17.2335 47.064 -17.0941 47.2857 -16.9779 47.5074 -16.8862 47.7291 -16.82 47.9509 -16.7799 " />
</g>
<g>
<polygon style="fill: yellow;" points="42.9276 17.7477 42.9276 21.102 46.9462 17.0553 46.9462 12.6846 " />
<polygon style="fill: yellow;" points="42.9276 -17.7477 42.9276 -21.102 46.9462 -17.0553 46.9462 -12.6846 " />
<line x1="42.9276" y1="21.102" x2="15.7585" y2="24.8596"  />
<line x1="42.9276" y1="-21.102" x2="15.7585" y2="-24.8596"  />
<line x1="46.9462" y1="17.0553" x2="23.9598" y2="24.8596"  />
<line x1="46.9462" y1="-17.0553" x2="23.9598" y2="-24.8596"  />
</g>
<g>
<line x1="47.9509" y1="12.3234" x2="47.9509" y2="16.7665"  />
<line x1="47.9509" y1="-12.3234" x2="47.9509" y2="-16.7665"  />
<polyline points="47.9509 16.7665 47.9509 16.7665 49.3449 16.7665 53.2437 16.1986 56.9049 15.7148 60.3758 15.2981 63.6961 14.9358 66.9 14.6183 70.0177 14.3387 73.0771 14.0917 76.1044 13.8737 79.1259 13.6821 82.1682 13.5155 85.0357 13.093 " />
<polyline points="47.9509 -16.7665 47.9509 -16.7665 49.3449 -16.7665 53.2437 -16.1986 56.9049 -15.7148 60.3758 -15.2981 63.6961 -14.9358 66.9 -14.6183 70.0177 -14.3387 73.0771 -14.0917 76.1044 -13.8737 79.1259 -13.6821 82.1682 -13.5155 85.0357 -13.093 " />
<polyline points="47.9509 12.3234 47.9509 12.3234 49.3449 12.3234 53.2437 12.2114 56.9049 12.0993 60.3758 11.9873 63.6961 11.8753 66.9 11.7632 70.0177 11.6512 73.0771 11.5392 76.1044 11.4271 79.1259 11.3151 82.1682 11.2031 85.0357 11.0911 " />
<polyline points="47.9509 -12.3234 47.9509 -12.3234 49.3449 -12.3234 53.2437 -12.2114 56.9049 -12.0993 60.3758 -11.9873 63.6961 -11.8753 66.9 -11.7632 70.0177 -11.6512 73.0771 -11.5392 76.1044 -11.4271 79.1259 -11.3151 82.1682 -11.2031 85.0357 -11.0911 " />
<line x1="85.0357" y1="11.0911" x2="85.0357" y2="13.374"  />
<line x1="85.0357" y1="-11.0911" x2="85.0357" y2="-13.374"  />
<polygon style="fill: white;" points="47.9509 16.7665 47.9509 12.3234 49.0616 12.3234 49.0616 16.7665 " />
<polygon style="fill: white;" points="47.9509 -16.7665 47.9509 -12.3234 49.0616 -12.3234 49.0616 -16.7665 " />
<polyline points="48.6479 16.7665 48.6479 18.6665 49.6479 18.6665 49.6479 18.4165 50.1479 18.4165 50.1479 18.9165 49.6479 18.9165 49.6479 18.6665 " />
<polyline points="48.6479 -16.7665 48.6479 -18.6665 49.6479 -18.6665 49.6479 -18.4165 50.1479 -18.4165 50.1479 -18.9165 49.6479 -18.9165 49.6479 -18.6665 " />
<polygon style="fill: black;" points="49.3449 16.7665 49.3449 12.3234 51.5665 12.2596 51.5665 16.4429 " />
<polygon style="fill: black;" points="49.3449 -16.7665 49.3449 -12.3234 51.5665 -12.2596 51.5665 -16.4429 " />
<polygon style="fill: white;" points="51.8497 16.4017 51.8497 12.2514 52.9605 12.2195 52.9605 16.2398 " />
<polygon style="fill: white;" points="51.8497 -16.4017 51.8497 -12.2514 52.9605 -12.2195 52.9605 -16.2398 " />
<polyline points="52.4051 16.3207 52.4051 18.2207 53.4051 18.2207 53.4051 17.9707 53.9051 17.9707 53.9051 18.4707 53.4051 18.4707 53.4051 18.2207 " />
<polyline points="52.4051 -16.3207 52.4051 -18.2207 53.4051 -18.2207 53.4051 -17.9707 53.9051 -17.9707 53.9051 -18.4707 53.4051 -18.4707 53.4051 -18.2207 " />
<polygon style="fill: black;" points="53.2437 16.1986 53.2437 12.2114 55.2626 12.1496 55.2626 15.9318 " />
<polygon style="fill: black;" points="53.2437 -16.1986 53.2437 -12.2114 55.2626 -12.1496 55.2626 -15.9318 " />
<polygon style="fill: white;" points="55.5286 15.8967 55.5286 12.1414 56.6389 12.1075 56.6389 15.75 " />
<polygon style="fill: white;" points="55.5286 -15.8967 55.5286 -12.1414 56.6389 -12.1075 56.6389 -15.75 " />
<polyline points="56.0838 15.8233 56.0838 17.7233 57.0838 17.7233 57.0838 17.4733 57.5838 17.4733 57.5838 17.9733 57.0838 17.9733 57.0838 17.7233 " />
<polyline points="56.0838 -15.8233 56.0838 -17.7233 57.0838 -17.7233 57.0838 -17.4733 57.5838 -17.4733 57.5838 -17.9733 57.0838 -17.9733 57.0838 -17.7233 " />
<polygon style="fill: black;" points="56.9049 15.7148 56.9049 12.0993 58.759 12.0395 58.759 15.4922 " />
<polygon style="fill: black;" points="56.9049 -15.7148 56.9049 -12.0993 58.759 -12.0395 58.759 -15.4922 " />
<polygon style="fill: white;" points="59.0112 15.462 59.0112 12.0313 60.1236 11.9954 60.1236 15.3284 " />
<polygon style="fill: white;" points="59.0112 -15.462 59.0112 -12.0313 60.1236 -11.9954 60.1236 -15.3284 " />
<polyline points="59.5674 15.3952 59.5674 17.2952 60.5674 17.2952 60.5674 17.0452 61.0674 17.0452 61.0674 17.5452 60.5674 17.5452 60.5674 17.2952 " />
<polyline points="59.5674 -15.3952 59.5674 -17.2952 60.5674 -17.2952 60.5674 -17.0452 61.0674 -17.0452 61.0674 -17.5452 60.5674 -17.5452 60.5674 -17.2952 " />
<polygon style="fill: black;" points="60.3758 15.2981 60.3758 11.9873 62.0957 11.9293 62.0957 15.1104 " />
<polygon style="fill: black;" points="60.3758 -15.2981 60.3758 -11.9873 62.0957 -11.9293 62.0957 -15.1104 " />
<polygon style="fill: white;" points="62.3369 15.0841 62.3369 11.9211 63.4549 11.8834 63.4549 14.9621 " />
<polygon style="fill: white;" points="62.3369 -15.0841 62.3369 -11.9211 63.4549 -11.8834 63.4549 -14.9621 " />
<polygon style="fill: black;" points="63.6961 14.9358 63.6961 11.8753 65.3069 11.8189 65.3069 14.7762 " />
<polygon style="fill: black;" points="63.6961 -14.9358 63.6961 -11.8753 65.3069 -11.8189 65.3069 -14.7762 " />
<polygon style="fill: white;" points="65.5397 14.7531 65.5397 11.8108 66.6672 11.7714 66.6672 14.6414 " />
<polygon style="fill: white;" points="65.5397 -14.7531 65.5397 -11.8108 66.6672 -11.7714 66.6672 -14.6414 " />
<polygon style="fill: black;" points="66.9 14.6183 66.9 11.7632 68.4227 11.7085 68.4227 14.4817 " />
<polygon style="fill: black;" points="66.9 -14.6183 66.9 -11.7632 68.4227 -11.7085 68.4227 -14.4817 " />
<polygon style="fill: white;" points="68.6492 14.4614 68.6492 11.7004 69.7912 11.6593 69.7912 14.359 " />
<polygon style="fill: white;" points="68.6492 -14.4614 68.6492 -11.7004 69.7912 -11.6593 69.7912 -14.359 " />
<polygon style="fill: black;" points="70.0177 14.3387 70.0177 11.6512 71.4704 11.598 71.4704 14.2214 " />
<polygon style="fill: black;" points="70.0177 -14.3387 70.0177 -11.6512 71.4704 -11.598 71.4704 -14.2214 " />
<polygon style="fill: white;" points="71.6926 14.2035 71.6926 11.5899 72.8548 11.5473 72.8548 14.1097 " />
<polygon style="fill: white;" points="71.6926 -14.2035 71.6926 -11.5899 72.8548 -11.5473 72.8548 -14.1097 " />
<polygon style="fill: black;" points="73.0771 14.0917 73.0771 11.5392 74.4757 11.4874 74.4757 13.991 " />
<polygon style="fill: black;" points="73.0771 -14.0917 73.0771 -11.5392 74.4757 -11.4874 74.4757 -13.991 " />
<polygon style="fill: white;" points="74.6956 13.9751 74.6956 11.4793 75.8845 11.4353 75.8845 13.8895 " />
<polygon style="fill: white;" points="74.6956 -13.9751 74.6956 -11.4793 75.8845 -11.4353 75.8845 -13.8895 " />
<polygon style="fill: black;" points="76.1044 13.8737 76.1044 11.4271 77.4636 11.3767 77.4636 13.7875 " />
<polygon style="fill: black;" points="76.1044 -13.8737 76.1044 -11.4271 77.4636 -11.3767 77.4636 -13.7875 " />
<polygon style="fill: white;" points="77.6831 13.7736 77.6831 11.3686 78.9064 11.3233 78.9064 13.696 " />
<polygon style="fill: white;" points="77.6831 -13.7736 77.6831 -11.3686 78.9064 -11.3233 78.9064 -13.696 " />
<polygon style="fill: black;" points="79.1259 13.6821 79.1259 11.3151 80.4594 11.266 80.4594 13.6091 " />
<polygon style="fill: black;" points="79.1259 -13.6821 79.1259 -11.3151 80.4594 -11.266 80.4594 -13.6091 " />
<polygon style="fill: white;" points="80.6804 13.597 80.6804 11.2579 81.9472 11.2112 81.9472 13.5276 " />
<polygon style="fill: white;" points="80.6804 -13.597 80.6804 -11.2579 81.9472 -11.2112 81.9472 -13.5276 " />
<polygon style="fill: black;" points="82.1682 13.5155 82.1682 11.2031 83.4896 11.1515 83.4896 13.4503 " />
<polygon style="fill: black;" points="82.1682 -13.5155 82.1682 -11.2031 83.4896 -11.1515 83.4896 -13.4503 " />
<polygon style="fill: white;" points="83.7143 13.4392 83.7143 11.1427 85.0357 11.0911 85.0357 13.374 " />
<polygon style="fill: white;" points="83.7143 -13.4392 83.7143 -11.1427 85.0357 -11.0911 85.0357 -13.374 " />
</g>
<g>
<polygon points="49.3449 9.12551 49.3449 12.2114 51.5665 12.2114 51.5665 9.12551 49.3449 9.12551 49.3449 11.5392 51.5665 11.5392 51.5665 9.12551 " />
<polygon points="49.3449 -9.12551 49.3449 -12.2114 51.5665 -12.2114 51.5665 -9.12551 49.3449 -9.12551 49.3449 -11.5392 51.5665 -11.5392 51.5665 -9.12551 " />
<line x1="49.3449" y1="12.2114" x2="49.3449" y2="12.3234"  />
<line x1="49.3449" y1="-12.2114" x2="49.3449" y2="-12.3234"  />
<polygon points="53.2437 9.33241 53.2437 12.0993 55.2626 12.0993 55.2626 9.33241 53.2437 9.33241 53.2437 11.5076 55.2626 11.5076 55.2626 9.33241 " />
<polygon points="53.2437 -9.33241 53.2437 -12.0993 55.2626 -12.0993 55.2626 -9.33241 53.2437 -9.33241 53.2437 -11.5076 55.2626 -11.5076 55.2626 -9.33241 " />
<line x1="53.2437" y1="12.0993" x2="53.2437" y2="12.2114"  />
<line x1="53.2437" y1="-12.0993" x2="53.2437" y2="-12.2114"  />
<polygon points="56.9049 9.48583 56.9049 11.9873 58.759 11.9873 58.759 9.48583 56.9049 9.48583 56.9049 11.4612 58.759 11.4612 58.759 9.48583 " />
<polygon points="56.9049 -9.48583 56.9049 -11.9873 58.759 -11.9873 58.759 -9.48583 56.9049 -9.48583 56.9049 -11.4612 58.759 -11.4612 58.759 -9.48583 " />
<line x1="56.9049" y1="11.9873" x2="56.9049" y2="12.0993"  />
<line x1="56.9049" y1="-11.9873" x2="56.9049" y2="-12.0993"  />
<polygon points="60.3758 9.58766 60.3758 11.8753 62.0957 11.8753 62.0957 9.58766 60.3758 9.58766 60.3758 11.4029 62.0957 11.4029 62.0957 9.58766 " />
<polygon points="60.3758 -9.58766 60.3758 -11.8753 62.0957 -11.8753 62.0957 -9.58766 60.3758 -9.58766 60.3758 -11.4029 62.0957 -11.4029 62.0957 -9.58766 " />
<line x1="60.3758" y1="11.8753" x2="60.3758" y2="11.9873"  />
<line x1="60.3758" y1="-11.8753" x2="60.3758" y2="-11.9873"  />
<polygon points="63.6961 9.64681 63.6961 11.7632 65.3069 11.7632 65.3069 9.64681 63.6961 9.64681 63.6961 11.3351 65.3069 11.3351 65.3069 9.64681 " />
<polygon points="63.6961 -9.64681 63.6961 -11.7632 65.3069 -11.7632 65.3069 -9.64681 63.6961 -9.64681 63.6961 -11.3351 65.3069 -11.3351 65.3069 -9.64681 " />
<line x1="63.6961" y1="11.7632" x2="63.6961" y2="11.8753"  />
<line x1="63.6961" y1="-11.7632" x2="63.6961" y2="-11.8753"  />
<polygon points="66.9 9.77769 66.9 11.6512 68.4227 11.6512 68.4227 9.77769 66.9 9.77769 66.9 11.2593 68.4227 11.2593 68.4227 9.77769 " />
<polygon points="66.9 -9.77769 66.9 -11.6512 68.4227 -11.6512 68.4227 -9.77769 66.9 -9.77769 66.9 -11.2593 68.4227 -11.2593 68.4227 -9.77769 " />
<line x1="66.9" y1="11.6512" x2="66.9" y2="11.7632"  />
<line x1="66.9" y1="-11.6512" x2="66.9" y2="-11.7632"  />
<polygon points="70.0177 9.77481 70.0177 11.5392 71.4704 11.5392 71.4704 9.77481 70.0177 9.77481 70.0177 11.1769 71.4704 11.1769 71.4704 9.77481 " />
<polygon points="70.0177 -9.77481 70.0177 -11.5392 71.4704 -11.5392 71.4704 -9.77481 70.0177 -9.77481 70.0177 -11.1769 71.4704 -11.1769 71.4704 -9.77481 " />
<line x1="70.0177" y1="11.5392" x2="70.0177" y2="11.6512"  />
<line x1="70.0177" y1="-11.5392" x2="70.0177" y2="-11.6512"  />
<polygon points="73.0771 9.7459 73.0771 11.4271 74.4757 11.4271 74.4757 9.7459 73.0771 9.7459 73.0771 11.0887 74.4757 11.0887 74.4757 9.7459 " />
<polygon points="73.0771 -9.7459 73.0771 -11.4271 74.4757 -11.4271 74.4757 -9.7459 73.0771 -9.7459 73.0771 -11.0887 74.4757 -11.0887 74.4757 -9.7459 " />
<line x1="73.0771" y1="11.4271" x2="73.0771" y2="11.5392"  />
<line x1="73.0771" y1="-11.4271" x2="73.0771" y2="-11.5392"  />
<polygon points="76.1044 9.7031 76.1044 11.3151 77.4636 11.3151 77.4636 9.7031 76.1044 9.7031 76.1044 10.9953 77.4636 10.9953 77.4636 9.7031 " />
<polygon points="76.1044 -9.7031 76.1044 -11.3151 77.4636 -11.3151 77.4636 -9.7031 76.1044 -9.7031 76.1044 -10.9953 77.4636 -10.9953 77.4636 -9.7031 " />
<line x1="76.1044" y1="11.3151" x2="76.1044" y2="11.4271"  />
<line x1="76.1044" y1="-11.3151" x2="76.1044" y2="-11.4271"  />
<polygon points="79.1259 8.94077 79.1259 11.2031 80.4594 11.2031 80.4594 8.94077 79.1259 8.94077 79.1259 10.8973 80.4594 10.8973 80.4594 8.94077 " />
<polygon points="79.1259 -8.94077 79.1259 -11.2031 80.4594 -11.2031 80.4594 -8.94077 79.1259 -8.94077 79.1259 -10.8973 80.4594 -10.8973 80.4594 -8.94077 " />
<line x1="79.1259" y1="11.2031" x2="79.1259" y2="11.3151"  />
<line x1="79.1259" y1="-11.2031" x2="79.1259" y2="-11.3151"  />
<polygon points="82.1682 8.92086 82.1682 11.0911 83.4896 11.0911 83.4896 8.92086 82.1682 8.92086 82.1682 10.7949 83.4896 10.7949 83.4896 8.92086 " />
<polygon points="82.1682 -8.92086 82.1682 -11.0911 83.4896 -11.0911 83.4896 -8.92086 82.1682 -8.92086 82.1682 -10.7949 83.4896 -10.7949 83.4896 -8.92086 " />
<line x1="82.1682" y1="11.0911" x2="82.1682" y2="11.2031"  />
<line x1="82.1682" y1="-11.0911" x2="82.1682" y2="-11.2031"  />
</g>
<g>
<line x1="85.0357" y1="11.372" x2="85.0357" y2="13.093"  />
<line x1="85.0357" y1="-11.372" x2="85.0357" y2="-13.093"  />
<polyline points="85.0357 11.372 85.184 11.3577 85.3324 11.3147 85.4807 11.2436 85.6291 11.1452 85.7775 11.0205 85.9258 10.8709 86.0742 10.698 86.2225 10.5038 86.3709 10.2904 86.5192 10.06 86.6676 9.81529 86.816 9.55886 86.9643 9.29356 87.1127 9.02228 87.261 8.74799 87.4094 8.4737 87.5577 8.20242 87.7061 7.93712 87.8544 7.6807 88.0028 7.43597 88.1512 7.20562 88.2995 6.99216 88.4479 6.79795 88.5962 6.6251 88.7446 6.4755 88.8929 6.35081 89.0413 6.25238 89.1897 6.18129 89.338 6.13832 " />
<polyline points="85.0357 -11.372 85.184 -11.3577 85.3324 -11.3147 85.4807 -11.2436 85.6291 -11.1452 85.7775 -11.0205 85.9258 -10.8709 86.0742 -10.698 86.2225 -10.5038 86.3709 -10.2904 86.5192 -10.06 86.6676 -9.81529 86.816 -9.55886 86.9643 -9.29356 87.1127 -9.02228 87.261 -8.74799 87.4094 -8.4737 87.5577 -8.20242 87.7061 -7.93712 87.8544 -7.6807 88.0028 -7.43597 88.1512 -7.20562 88.2995 -6.99216 88.4479 -6.79795 88.5962 -6.6251 88.7446 -6.4755 88.8929 -6.35081 89.0413 -6.25238 89.1897 -6.18129 89.338 -6.13832 " />
<polyline points="85.0357 13.093 85.184 13.1014 85.3324 13.1267 85.4807 13.1685 85.6291 13.2264 85.7775 13.2997 85.9258 13.3877 86.0742 13.4893 86.2225 13.6035 86.3709 13.7291 86.5192 13.8645 86.6676 14.0084 86.816 14.1592 86.9643 14.3152 87.1127 14.4748 87.261 14.6361 87.4094 14.7974 87.5577 14.9569 87.7061 15.1129 87.8544 15.2637 88.0028 15.4076 88.1512 15.5431 88.2995 15.6686 88.4479 15.7828 88.5962 15.8845 88.7446 15.9724 88.8929 16.0458 89.0413 16.1036 89.1897 16.1454 89.338 16.1707 " />
<polyline points="85.0357 -13.093 85.184 -13.1014 85.3324 -13.1267 85.4807 -13.1685 85.6291 -13.2264 85.7775 -13.2997 85.9258 -13.3877 86.0742 -13.4893 86.2225 -13.6035 86.3709 -13.7291 86.5192 -13.8645 86.6676 -14.0084 86.816 -14.1592 86.9643 -14.3152 87.1127 -14.4748 87.261 -14.6361 87.4094 -14.7974 87.5577 -14.9569 87.7061 -15.1129 87.8544 -15.2637 88.0028 -15.4076 88.1512 -15.5431 88.2995 -15.6686 88.4479 -15.7828 88.5962 -15.8845 88.7446 -15.9724 88.8929 -16.0458 89.0413 -16.1036 89.1897 -16.1454 89.338 -16.1707 " />
</g>
<g>
<line x1="89.338" y1="6.12395" x2="89.338" y2="16.1792"  />
<line x1="89.338" y1="-6.12395" x2="89.338" y2="-16.1792"  />
<polyline points="89.338 6.12395 90.0001 6.14787 90.6621 6.21938 91.3242 6.3377 91.9863 6.50152 92.6484 6.70905 93.3104 6.95802 93.9725 7.24571 94.6346 7.56895 95.2966 7.9242 95.9587 8.30759 96.6208 8.71489 97.2828 9.14166 97.9449 9.58322 98.607 10.0347 99.269 10.4912 99.9311 10.9477 100.593 11.3992 101.255 11.8408 101.917 12.2676 102.579 12.6749 103.241 13.0582 103.904 13.4135 104.566 13.7367 105.228 14.0244 105.89 14.2734 106.552 14.4809 107.214 14.6448 107.876 14.7631 108.538 14.8346 " />
<polyline points="89.338 -6.12395 90.0001 -6.14787 90.6621 -6.21938 91.3242 -6.3377 91.9863 -6.50152 92.6484 -6.70905 93.3104 -6.95802 93.9725 -7.24571 94.6346 -7.56895 95.2966 -7.9242 95.9587 -8.30759 96.6208 -8.71489 97.2828 -9.14166 97.9449 -9.58322 98.607 -10.0347 99.269 -10.4912 99.9311 -10.9477 100.593 -11.3992 101.255 -11.8408 101.917 -12.2676 102.579 -12.6749 103.241 -13.0582 103.904 -13.4135 104.566 -13.7367 105.228 -14.0244 105.89 -14.2734 106.552 -14.4809 107.214 -14.6448 107.876 -14.7631 108.538 -14.8346 " />
<polyline points="89.338 16.1792 90.0001 16.1879 90.6621 16.2141 91.3242 16.2575 91.9863 16.3175 92.6484 16.3935 93.3104 16.4847 93.9725 16.59 94.6346 16.7084 95.2966 16.8385 95.9587 16.979 96.6208 17.1281 97.2828 17.2845 97.9449 17.4462 98.607 17.6116 99.269 17.7788 99.9311 17.946 100.593 18.1113 101.255 18.2731 101.917 18.4294 102.579 18.5786 103.241 18.719 103.904 18.8491 104.566 18.9675 105.228 19.0729 105.89 19.164 106.552 19.2401 107.214 19.3001 107.876 19.3434 108.538 19.3696 " />
<polyline points="89.338 -16.1792 90.0001 -16.1879 90.6621 -16.2141 91.3242 -16.2575 91.9863 -16.3175 92.6484 -16.3935 93.3104 -16.4847 93.9725 -16.59 94.6346 -16.7084 95.2966 -16.8385 95.9587 -16.979 96.6208 -17.1281 97.2828 -17.2845 97.9449 -17.4462 98.607 -17.6116 99.269 -17.7788 99.9311 -17.946 100.593 -18.1113 101.255 -18.2731 101.917 -18.4294 102.579 -18.5786 103.241 -18.719 103.904 -18.8491 104.566 -18.9675 105.228 -19.0729 105.89 -19.164 106.552 -19.2401 107.214 -19.3001 107.876 -19.3434 108.538 -19.3696 " />
</g>
<g>
<line x1="108.538" y1="14.8585" x2="108.538" y2="19.3783"  />
<line x1="108.538" y1="-14.8585" x2="108.538" y2="-19.3783"  />
<polyline points="108.538 19.3783 108.538 19.3783 108.538 19.3783 113.383 19.0675 116.951 19.2978 116.951 19.2978 " />
<polyline points="108.538 -19.3783 108.538 -19.3783 108.538 -19.3783 113.383 -19.0675 116.951 -19.2978 116.951 -19.2978 " />
<polyline points="108.538 14.8585 108.538 14.8585 108.538 14.8585 113.383 15.2554 116.951 14.9629 116.951 14.9629 " />
<polyline points="108.538 -14.8585 108.538 -14.8585 108.538 -14.8585 113.383 -15.2554 116.951 -14.9629 116.951 -14.9629 " />
<line x1="116.951" y1="14.9629" x2="116.951" y2="19.2978"  />
<line x1="116.951" y1="-14.9629" x2="116.951" y2="-19.2978"  />
<polygon style="fill: white;" points="108.538 19.3783 108.538 14.8585 110.346 15.0066 110.346 19.2624 " />
<polygon style="fill: white;" points="108.538 -19.3783 108.538 -14.8585 110.346 -15.0066 110.346 -19.2624 " />
<polygon style="fill: black;" points="110.961 19.2229 110.961 15.0569 112.769 15.205 112.769 19.1069 " />
<polygon style="fill: black;" points="110.961 -19.2229 110.961 -15.0569 112.769 -15.205 112.769 -19.1069 " />
<polygon style="fill: white;" points="113.383 19.0675 113.383 15.2554 114.908 15.1304 114.908 19.1659 " />
<polygon style="fill: white;" points="113.383 -19.0675 113.383 -15.2554 114.908 -15.1304 114.908 -19.1659 " />
<polygon style="fill: black;" points="115.427 19.1994 115.427 15.0879 116.951 14.9629 116.951 19.2978 " />
<polygon style="fill: black;" points="115.427 -19.1994 115.427 -15.0879 116.951 -14.9629 116.951 -19.2978 " />
</g>
<g>
<polyline points="110.961 14.8585 110.961 11.9726 112.769 11.9726 112.769 14.8585 110.961 14.8585 110.961 12.4246 112.769 12.4246 112.769 11.9726 112.181 11.7226 111.548 11.7226 110.961 11.9726 111.548 11.7226 111.232 8.06477 112.497 8.06477 112.181 11.7226 112.497 8.06477 112.497 8.06477 112.497 8.0038 112.498 7.94284 112.498 7.88188 112.499 7.82091 112.5 7.75995 112.502 7.69899 112.504 7.63802 112.507 7.57706 112.511 7.5161 112.517 7.45513 112.523 7.39417 112.531 7.3332 112.54 7.27224 112.551 7.21128 112.563 7.15031 112.578 7.08935 112.594 7.02839 112.612 6.96742 112.632 6.90646 112.655 6.8455 112.68 6.78453 112.708 6.72357 112.738 6.6626 112.771 6.60164 112.807 6.54068 112.846 6.47971 112.889 6.41875 112.934 6.35779 112.983 6.29682 113.036 6.23586 113.663 6.23586 110.067 6.23586 110.694 6.23586 110.746 6.29682 110.795 6.35779 110.841 6.41875 110.883 6.47971 110.922 6.54068 110.958 6.60164 110.991 6.6626 111.021 6.72357 111.049 6.78453 111.074 6.8455 111.097 6.90646 111.117 6.96742 111.135 7.02839 111.152 7.08935 111.166 7.15031 111.178 7.21128 111.189 7.27224 111.198 7.3332 111.206 7.39417 111.213 7.45513 111.218 7.5161 111.222 7.57706 111.225 7.63802 111.228 7.69899 111.229 7.75995 111.231 7.82091 111.231 7.88188 111.232 7.94284 111.232 8.0038 111.232 8.06477 111.232 8.06477 111.232 8.0038 111.232 7.94284 111.231 7.88188 111.231 7.82091 111.229 7.75995 111.228 7.69899 111.225 7.63802 111.222 7.57706 111.218 7.5161 111.213 7.45513 111.206 7.39417 111.198 7.3332 111.189 7.27224 111.178 7.21128 111.166 7.15031 111.152 7.08935 111.135 7.02839 111.117 6.96742 111.097 6.90646 111.074 6.8455 111.049 6.78453 111.021 6.72357 110.991 6.6626 110.958 6.60164 110.922 6.54068 110.883 6.47971 110.841 6.41875 110.795 6.35779 110.746 6.29682 110.694 6.23586 110.067 6.23586 113.663 6.23586 113.663 5.20048 110.067 5.20048 110.067 6.23586 " />
<polyline points="110.961 -14.8585 110.961 -11.9726 112.769 -11.9726 112.769 -14.8585 110.961 -14.8585 110.961 -12.4246 112.769 -12.4246 112.769 -11.9726 112.181 -11.7226 111.548 -11.7226 110.961 -11.9726 111.548 -11.7226 111.232 -8.06477 112.497 -8.06477 112.181 -11.7226 112.497 -8.06477 112.497 -8.06477 112.497 -8.0038 112.498 -7.94284 112.498 -7.88188 112.499 -7.82091 112.5 -7.75995 112.502 -7.69899 112.504 -7.63802 112.507 -7.57706 112.511 -7.5161 112.517 -7.45513 112.523 -7.39417 112.531 -7.3332 112.54 -7.27224 112.551 -7.21128 112.563 -7.15031 112.578 -7.08935 112.594 -7.02839 112.612 -6.96742 112.632 -6.90646 112.655 -6.8455 112.68 -6.78453 112.708 -6.72357 112.738 -6.6626 112.771 -6.60164 112.807 -6.54068 112.846 -6.47971 112.889 -6.41875 112.934 -6.35779 112.983 -6.29682 113.036 -6.23586 113.663 -6.23586 110.067 -6.23586 110.694 -6.23586 110.746 -6.29682 110.795 -6.35779 110.841 -6.41875 110.883 -6.47971 110.922 -6.54068 110.958 -6.60164 110.991 -6.6626 111.021 -6.72357 111.049 -6.78453 111.074 -6.8455 111.097 -6.90646 111.117 -6.96742 111.135 -7.02839 111.152 -7.08935 111.166 -7.15031 111.178 -7.21128 111.189 -7.27224 111.198 -7.3332 111.206 -7.39417 111.213 -7.45513 111.218 -7.5161 111.222 -7.57706 111.225 -7.63802 111.228 -7.69899 111.229 -7.75995 111.231 -7.82091 111.231 -7.88188 111.232 -7.94284 111.232 -8.0038 111.232 -8.06477 111.232 -8.06477 111.232 -8.0038 111.232 -7.94284 111.231 -7.88188 111.231 -7.82091 111.229 -7.75995 111.228 -7.69899 111.225 -7.63802 111.222 -7.57706 111.218 -7.5161 111.213 -7.45513 111.206 -7.39417 111.198 -7.3332 111.189 -7.27224 111.178 -7.21128 111.166 -7.15031 111.152 -7.08935 111.135 -7.02839 111.117 -6.96742 111.097 -6.90646 111.074 -6.8455 111.049 -6.78453 111.021 -6.72357 110.991 -6.6626 110.958 -6.60164 110.922 -6.54068 110.883 -6.47971 110.841 -6.41875 110.795 -6.35779 110.746 -6.29682 110.694 -6.23586 110.067 -6.23586 113.663 -6.23586 113.663 -5.20048 110.067 -5.20048 110.067 -6.23586 " />
<polyline points="115.427 15.2554 115.427 12.8213 116.951 12.8213 116.951 15.2554 115.427 15.2554 115.427 13.2025 116.951 13.2025 116.951 12.8213 116.456 12.5713 115.922 12.5713 115.427 12.8213 115.922 12.5713 115.655 8.48349 116.723 8.48349 116.456 12.5713 116.723 8.48349 116.723 8.48349 116.723 8.41536 116.723 8.34723 116.723 8.2791 116.724 8.21097 116.725 8.14284 116.727 8.07471 116.73 8.00658 116.733 7.93845 116.738 7.87032 116.743 7.80219 116.75 7.73406 116.758 7.66593 116.768 7.5978 116.779 7.52967 116.792 7.46154 116.807 7.39341 116.825 7.32528 116.844 7.25715 116.865 7.18902 116.889 7.12089 116.916 7.05276 116.945 6.98463 116.977 6.9165 117.012 6.84837 117.05 6.78024 117.091 6.71211 117.136 6.64397 117.184 6.57584 117.236 6.50771 117.292 6.43958 117.292 6.43958 115.087 6.43958 115.087 6.43958 115.142 6.50771 115.194 6.57584 115.242 6.64397 115.287 6.71211 115.328 6.78024 115.366 6.84837 115.401 6.9165 115.433 6.98463 115.462 7.05276 115.489 7.12089 115.513 7.18902 115.534 7.25715 115.553 7.32528 115.571 7.39341 115.586 7.46154 115.599 7.52967 115.61 7.5978 115.62 7.66593 115.628 7.73406 115.635 7.80219 115.64 7.87032 115.645 7.93845 115.648 8.00658 115.651 8.07471 115.653 8.14284 115.654 8.21097 115.655 8.2791 115.655 8.34723 115.655 8.41536 115.655 8.48349 115.655 8.48349 115.655 8.41536 115.655 8.34723 115.655 8.2791 115.654 8.21097 115.653 8.14284 115.651 8.07471 115.648 8.00658 115.645 7.93845 115.64 7.87032 115.635 7.80219 115.628 7.73406 115.62 7.66593 115.61 7.5978 115.599 7.52967 115.586 7.46154 115.571 7.39341 115.553 7.32528 115.534 7.25715 115.513 7.18902 115.489 7.12089 115.462 7.05276 115.433 6.98463 115.401 6.9165 115.366 6.84837 115.328 6.78024 115.287 6.71211 115.242 6.64397 115.194 6.57584 115.142 6.50771 115.087 6.43958 115.087 6.43958 117.292 6.43958 117.292 5.33937 115.087 5.33937 115.087 6.43958 " />
<polyline points="115.427 -15.2554 115.427 -12.8213 116.951 -12.8213 116.951 -15.2554 115.427 -15.2554 115.427 -13.2025 116.951 -13.2025 116.951 -12.8213 116.456 -12.5713 115.922 -12.5713 115.427 -12.8213 115.922 -12.5713 115.655 -8.48349 116.723 -8.48349 116.456 -12.5713 116.723 -8.48349 116.723 -8.48349 116.723 -8.41536 116.723 -8.34723 116.723 -8.2791 116.724 -8.21097 116.725 -8.14284 116.727 -8.07471 116.73 -8.00658 116.733 -7.93845 116.738 -7.87032 116.743 -7.80219 116.75 -7.73406 116.758 -7.66593 116.768 -7.5978 116.779 -7.52967 116.792 -7.46154 116.807 -7.39341 116.825 -7.32528 116.844 -7.25715 116.865 -7.18902 116.889 -7.12089 116.916 -7.05276 116.945 -6.98463 116.977 -6.9165 117.012 -6.84837 117.05 -6.78024 117.091 -6.71211 117.136 -6.64397 117.184 -6.57584 117.236 -6.50771 117.292 -6.43958 117.292 -6.43958 115.087 -6.43958 115.087 -6.43958 115.142 -6.50771 115.194 -6.57584 115.242 -6.64397 115.287 -6.71211 115.328 -6.78024 115.366 -6.84837 115.401 -6.9165 115.433 -6.98463 115.462 -7.05276 115.489 -7.12089 115.513 -7.18902 115.534 -7.25715 115.553 -7.32528 115.571 -7.39341 115.586 -7.46154 115.599 -7.52967 115.61 -7.5978 115.62 -7.66593 115.628 -7.73406 115.635 -7.80219 115.64 -7.87032 115.645 -7.93845 115.648 -8.00658 115.651 -8.07471 115.653 -8.14284 115.654 -8.21097 115.655 -8.2791 115.655 -8.34723 115.655 -8.41536 115.655 -8.48349 115.655 -8.48349 115.655 -8.41536 115.655 -8.34723 115.655 -8.2791 115.654 -8.21097 115.653 -8.14284 115.651 -8.07471 115.648 -8.00658 115.645 -7.93845 115.64 -7.87032 115.635 -7.80219 115.628 -7.73406 115.62 -7.66593 115.61 -7.5978 115.599 -7.52967 115.586 -7.46154 115.571 -7.39341 115.553 -7.32528 115.534 -7.25715 115.513 -7.18902 115.489 -7.12089 115.462 -7.05276 115.433 -6.98463 115.401 -6.9165 115.366 -6.84837 115.328 -6.78024 115.287 -6.71211 115.242 -6.64397 115.194 -6.57584 115.142 -6.50771 115.087 -6.43958 115.087 -6.43958 117.292 -6.43958 117.292 -5.33937 115.087 -5.33937 115.087 -6.43958 " />
</g>
<g>
<line x1="116.951" y1="14.9059" x2="116.951" y2="19.3549"  />
<line x1="116.951" y1="-14.9059" x2="116.951" y2="-19.3549"  />
<polyline points="116.951 14.9059 117.028 14.9085 117.105 14.9165 117.182 14.9298 117.258 14.9481 117.335 14.9713 117.412 14.9992 117.488 15.0314 117.565 15.0675 117.642 15.1073 117.719 15.1502 117.795 15.1957 117.872 15.2435 117.949 15.2929 118.025 15.3434 118.102 15.3944 118.179 15.4455 118.255 15.496 118.332 15.5454 118.409 15.5931 118.486 15.6387 118.562 15.6816 118.639 15.7213 118.716 15.7575 118.792 15.7897 118.869 15.8175 118.946 15.8407 119.023 15.8591 119.099 15.8723 119.176 15.8803 " />
<polyline points="116.951 -14.9059 117.028 -14.9085 117.105 -14.9165 117.182 -14.9298 117.258 -14.9481 117.335 -14.9713 117.412 -14.9992 117.488 -15.0314 117.565 -15.0675 117.642 -15.1073 117.719 -15.1502 117.795 -15.1957 117.872 -15.2435 117.949 -15.2929 118.025 -15.3434 118.102 -15.3944 118.179 -15.4455 118.255 -15.496 118.332 -15.5454 118.409 -15.5931 118.486 -15.6387 118.562 -15.6816 118.639 -15.7213 118.716 -15.7575 118.792 -15.7897 118.869 -15.8175 118.946 -15.8407 119.023 -15.8591 119.099 -15.8723 119.176 -15.8803 " />
<polyline points="116.951 19.3549 117.028 19.3572 117.105 19.3641 117.182 19.3755 117.258 19.3913 117.335 19.4114 117.412 19.4354 117.488 19.4632 117.565 19.4944 117.642 19.5287 117.719 19.5657 117.795 19.6051 117.872 19.6463 117.949 19.6889 118.025 19.7325 118.102 19.7766 118.179 19.8207 118.255 19.8643 118.332 19.9069 118.409 19.9481 118.486 19.9874 118.562 20.0244 118.639 20.0587 118.716 20.09 118.792 20.1177 118.869 20.1418 118.946 20.1618 119.023 20.1776 119.099 20.1891 119.176 20.196 " />
<polyline points="116.951 -19.3549 117.028 -19.3572 117.105 -19.3641 117.182 -19.3755 117.258 -19.3913 117.335 -19.4114 117.412 -19.4354 117.488 -19.4632 117.565 -19.4944 117.642 -19.5287 117.719 -19.5657 117.795 -19.6051 117.872 -19.6463 117.949 -19.6889 118.025 -19.7325 118.102 -19.7766 118.179 -19.8207 118.255 -19.8643 118.332 -19.9069 118.409 -19.9481 118.486 -19.9874 118.562 -20.0244 118.639 -20.0587 118.716 -20.09 118.792 -20.1177 118.869 -20.1418 118.946 -20.1618 119.023 -20.1776 119.099 -20.1891 119.176 -20.196 " />
</g>
<g>
<line x1="119.176" y1="15.883" x2="119.176" y2="20.1983"  />
<line x1="119.176" y1="-15.883" x2="119.176" y2="-20.1983"  />
<polyline points="119.176 20.1983 119.176 20.1983 119.176 20.1983 122.79 21.2426 126.657 22.6523 130.869 24.5861 134.942 27.3016 144.392 27.3016 " />
<polyline points="119.176 -20.1983 119.176 -20.1983 119.176 -20.1983 122.79 -21.2426 126.657 -22.6523 130.869 -24.5861 134.942 -27.3016 144.392 -27.3016 " />
<polyline points="119.176 15.883 119.176 15.883 119.176 15.883 122.79 15.883 126.657 15.883 130.869 15.883 134.942 15.883 144.392 15.883 " />
<polyline points="119.176 -15.883 119.176 -15.883 119.176 -15.883 122.79 -15.883 126.657 -15.883 130.869 -15.883 134.942 -15.883 144.392 -15.883 " />
<line x1="144.392" y1="15.883" x2="144.392" y2="27.3016"  />
<line x1="144.392" y1="-15.883" x2="144.392" y2="-27.3016"  />
<polygon style="fill: white;" points="119.176 20.1983 119.176 15.883 120.794 15.883 120.794 20.6659 " />
<polygon style="fill: white;" points="119.176 -20.1983 119.176 -15.883 120.794 -15.883 120.794 -20.6659 " />
<polygon style="fill: black;" points="121.253 20.7984 121.253 15.883 122.332 15.883 122.332 21.1101 " />
<polygon style="fill: black;" points="121.253 -20.7984 121.253 -15.883 122.332 -15.883 122.332 -21.1101 " />
<polygon style="fill: white;" points="122.79 21.2426 122.79 15.883 124.439 15.883 124.439 21.8437 " />
<polygon style="fill: white;" points="122.79 -21.2426 122.79 -15.883 124.439 -15.883 124.439 -21.8437 " />
<polygon style="fill: black;" points="124.93 22.0226 124.93 15.883 126.167 15.883 126.167 22.4734 " />
<polygon style="fill: black;" points="124.93 -22.0226 124.93 -15.883 126.167 -15.883 126.167 -22.4734 " />
<polygon style="fill: white;" points="126.657 22.6523 126.657 15.883 128.35 15.883 128.35 23.4294 " />
<polygon style="fill: white;" points="126.657 -22.6523 126.657 -15.883 128.35 -15.883 128.35 -23.4294 " />
<polygon style="fill: black;" points="128.884 23.6747 128.884 15.883 130.334 15.883 130.334 24.3408 " />
<polygon style="fill: black;" points="128.884 -23.6747 128.884 -15.883 130.334 -15.883 130.334 -24.3408 " />
<polygon style="fill: white;" points="130.869 24.5861 130.869 15.883 132.609 15.883 132.609 25.7466 " />
<polygon style="fill: white;" points="130.869 -24.5861 130.869 -15.883 132.609 -15.883 132.609 -25.7466 " />
<polygon style="fill: black;" points="133.201 26.1412 133.201 15.883 134.942 15.883 134.942 27.3016 " />
<polygon style="fill: black;" points="133.201 -26.1412 133.201 -15.883 134.942 -15.883 134.942 -27.3016 " />
</g>
<g>
<polyline points="121.253 15.883 121.253 14.5345 121.253 14.5345 122.332 14.5345 122.332 14.5345 122.332 15.883 122.332 15.883 121.253 15.883 121.253 14.8042 122.332 14.8042 122.332 14.5345 121.917 14.2845 121.917 14.2845 121.667 14.2845 121.667 14.2845 121.253 14.5345 121.667 14.2845 121.667 7.74404 121.667 7.74404 121.917 7.74404 121.917 7.74404 121.917 14.2845 121.917 7.74404 122.213 7.24404 122.213 7.24404 121.371 7.24404 121.371 7.24404 121.667 7.74404 121.371 7.24404 121.371 5.55904 121.371 5.55904 122.213 5.55904 122.213 5.55904 122.213 7.24404 121.917 7.74404 121.917 14.2845 122.332 14.5345 " />
<polyline points="121.253 -15.883 121.253 -14.5345 121.253 -14.5345 122.332 -14.5345 122.332 -14.5345 122.332 -15.883 122.332 -15.883 121.253 -15.883 121.253 -14.8042 122.332 -14.8042 122.332 -14.5345 121.917 -14.2845 121.917 -14.2845 121.667 -14.2845 121.667 -14.2845 121.253 -14.5345 121.667 -14.2845 121.667 -7.74404 121.667 -7.74404 121.917 -7.74404 121.917 -7.74404 121.917 -14.2845 121.917 -7.74404 122.213 -7.24404 122.213 -7.24404 121.371 -7.24404 121.371 -7.24404 121.667 -7.74404 121.371 -7.24404 121.371 -5.55904 121.371 -5.55904 122.213 -5.55904 122.213 -5.55904 122.213 -7.24404 121.917 -7.74404 121.917 -14.2845 122.332 -14.5345 " />
<polyline points="124.93 15.883 124.93 14.2339 124.93 14.2339 126.167 14.2339 126.167 14.2339 126.167 15.883 126.167 15.883 124.93 15.883 124.93 14.5431 126.167 14.5431 126.167 14.2339 125.673 13.9839 125.673 13.9839 125.423 13.9839 125.423 13.9839 124.93 14.2339 125.423 13.9839 125.423 7.72404 125.423 7.72404 125.673 7.72404 125.673 7.72404 125.673 13.9839 125.673 7.72404 125.964 7.22404 125.964 7.22404 125.132 7.22404 125.132 7.22404 125.423 7.72404 125.132 7.22404 125.132 5.55904 125.132 5.55904 125.964 5.55904 125.964 5.55904 125.964 7.22404 125.673 7.72404 125.673 13.9839 126.167 14.2339 " />
<polyline points="124.93 -15.883 124.93 -14.2339 124.93 -14.2339 126.167 -14.2339 126.167 -14.2339 126.167 -15.883 126.167 -15.883 124.93 -15.883 124.93 -14.5431 126.167 -14.5431 126.167 -14.2339 125.673 -13.9839 125.673 -13.9839 125.423 -13.9839 125.423 -13.9839 124.93 -14.2339 125.423 -13.9839 125.423 -7.72404 125.423 -7.72404 125.673 -7.72404 125.673 -7.72404 125.673 -13.9839 125.673 -7.72404 125.964 -7.22404 125.964 -7.22404 125.132 -7.22404 125.132 -7.22404 125.423 -7.72404 125.132 -7.22404 125.132 -5.55904 125.132 -5.55904 125.964 -5.55904 125.964 -5.55904 125.964 -7.22404 125.673 -7.72404 125.673 -13.9839 126.167 -14.2339 " />
<polyline points="128.884 15.883 128.884 13.828 128.884 13.828 130.334 13.828 130.334 13.828 130.334 15.883 130.334 15.883 128.884 15.883 128.884 14.1907 130.334 14.1907 130.334 13.828 129.734 13.578 129.734 13.578 129.484 13.578 129.484 13.578 128.884 13.828 129.484 13.578 129.484 7.72404 129.484 7.72404 129.734 7.72404 129.734 7.72404 129.734 13.578 129.734 7.72404 130.025 7.22404 130.025 7.22404 129.193 7.22404 129.193 7.22404 129.484 7.72404 129.193 7.22404 129.193 5.55904 129.193 5.55904 130.025 5.55904 130.025 5.55904 130.025 7.22404 129.734 7.72404 129.734 13.578 130.334 13.828 " />
<polyline points="128.884 -15.883 128.884 -13.828 128.884 -13.828 130.334 -13.828 130.334 -13.828 130.334 -15.883 130.334 -15.883 128.884 -15.883 128.884 -14.1907 130.334 -14.1907 130.334 -13.828 129.734 -13.578 129.734 -13.578 129.484 -13.578 129.484 -13.578 128.884 -13.828 129.484 -13.578 129.484 -7.72404 129.484 -7.72404 129.734 -7.72404 129.734 -7.72404 129.734 -13.578 129.734 -7.72404 130.025 -7.22404 130.025 -7.22404 129.193 -7.22404 129.193 -7.22404 129.484 -7.72404 129.193 -7.22404 129.193 -5.55904 129.193 -5.55904 130.025 -5.55904 130.025 -5.55904 130.025 -7.22404 129.734 -7.72404 129.734 -13.578 130.334 -13.828 " />
<polyline points="133.201 15.883 133.201 13.272 133.201 13.272 134.942 13.272 134.942 13.272 134.942 15.883 134.942 15.883 133.201 15.883 133.201 13.7072 134.942 13.7072 134.942 13.272 134.196 13.022 134.196 13.022 133.946 13.022 133.946 13.022 133.201 13.272 133.946 13.022 133.946 7.72404 133.946 7.72404 134.196 7.72404 134.196 7.72404 134.196 13.022 134.196 7.72404 134.488 7.22404 134.488 7.22404 133.655 7.22404 133.655 7.22404 133.946 7.72404 133.655 7.22404 133.655 5.55904 133.655 5.55904 134.488 5.55904 134.488 5.55904 134.488 7.22404 134.196 7.72404 134.196 13.022 134.942 13.272 " />
<polyline points="133.201 -15.883 133.201 -13.272 133.201 -13.272 134.942 -13.272 134.942 -13.272 134.942 -15.883 134.942 -15.883 133.201 -15.883 133.201 -13.7072 134.942 -13.7072 134.942 -13.272 134.196 -13.022 134.196 -13.022 133.946 -13.022 133.946 -13.022 133.201 -13.272 133.946 -13.022 133.946 -7.72404 133.946 -7.72404 134.196 -7.72404 134.196 -7.72404 134.196 -13.022 134.196 -7.72404 134.488 -7.22404 134.488 -7.22404 133.655 -7.22404 133.655 -7.22404 133.946 -7.72404 133.655 -7.22404 133.655 -5.55904 133.655 -5.55904 134.488 -5.55904 134.488 -5.55904 134.488 -7.22404 134.196 -7.72404 134.196 -13.022 134.942 -13.272 " />
</g>
<g>
<polygon style="fill: yellow;" points="136.517 15.883 136.517 27.3016 144.392 27.3016 144.392 15.883 " />
<polygon style="fill: yellow;" points="136.517 -15.883 136.517 -27.3016 144.392 -27.3016 144.392 -15.883 " />
</g>
<g>
<line x1="144.392" y1="15.883" x2="144.392" y2="27.3016"  />
<line x1="144.392" y1="-15.883" x2="144.392" y2="-27.3016"  />
<polyline points="144.392 15.883 144.49 15.883 144.589 15.883 144.687 15.883 144.785 15.883 144.884 15.883 144.982 15.883 145.081 15.883 145.179 15.883 145.278 15.883 145.376 15.883 145.474 15.883 145.573 15.883 145.671 15.883 145.77 15.883 145.868 15.883 145.967 15.883 146.065 15.883 146.164 15.883 146.262 15.883 146.36 15.883 146.459 15.883 146.557 15.883 146.656 15.883 146.754 15.883 146.853 15.883 146.951 15.883 147.049 15.883 147.148 15.883 147.246 15.883 " />
<polyline points="144.392 -15.883 144.49 -15.883 144.589 -15.883 144.687 -15.883 144.785 -15.883 144.884 -15.883 144.982 -15.883 145.081 -15.883 145.179 -15.883 145.278 -15.883 145.376 -15.883 145.474 -15.883 145.573 -15.883 145.671 -15.883 145.77 -15.883 145.868 -15.883 145.967 -15.883 146.065 -15.883 146.164 -15.883 146.262 -15.883 146.36 -15.883 146.459 -15.883 146.557 -15.883 146.656 -15.883 146.754 -15.883 146.853 -15.883 146.951 -15.883 147.049 -15.883 147.148 -15.883 147.246 -15.883 " />
<polyline points="144.392 27.3016 144.49 27.3016 144.589 27.3016 144.687 27.3016 144.785 27.3016 144.884 27.3016 144.982 27.3016 145.081 27.3016 145.179 27.3016 145.278 27.3016 145.376 27.3016 145.474 27.3016 145.573 27.3016 145.671 27.3016 145.77 27.3016 145.868 27.3016 145.967 27.3016 146.065 27.3016 146.164 27.3016 146.262 27.3016 146.36 27.3016 146.459 27.3016 146.557 27.3016 146.656 27.3016 146.754 27.3016 146.853 27.3016 146.951 27.3016 147.049 27.3016 147.148 27.3016 147.246 27.3016 " />
<polyline points="144.392 -27.3016 144.49 -27.3016 144.589 -27.3016 144.687 -27.3016 144.785 -27.3016 144.884 -27.3016 144.982 -27.3016 145.081 -27.3016 145.179 -27.3016 145.278 -27.3016 145.376 -27.3016 145.474 -27.3016 145.573 -27.3016 145.671 -27.3016 145.77 -27.3016 145.868 -27.3016 145.967 -27.3016 146.065 -27.3016 146.164 -27.3016 146.262 -27.3016 146.36 -27.3016 146.459 -27.3016 146.557 -27.3016 146.656 -27.3016 146.754 -27.3016 146.853 -27.3016 146.951 -27.3016 147.049 -27.3016 147.148 -27.3016 147.246 -27.3016 " />
</g>
<g>
<line x1="22.8149" y1="29.1339" x2="22.8149" y2="45.3628"  />
<line x1="22.8149" y1="-29.1339" x2="22.8149" y2="-45.3628"  />
<polyline points="22.8149 29.1339 24.214 29.1339 25.613 29.1339 27.012 29.1339 28.4111 29.1339 29.8101 29.1339 31.2092 29.1339 32.6082 29.1339 34.0072 29.1339 35.4063 29.1339 36.8053 29.1339 38.2044 29.1339 39.6034 29.1339 41.0025 29.1339 42.4015 29.1339 43.8005 29.1339 45.1996 29.1339 46.5986 29.1339 47.9977 29.1339 49.3967 29.1339 50.7957 29.1339 52.1948 29.1339 53.5938 29.1339 54.9929 29.1339 56.3919 29.1339 57.791 29.1339 59.19 29.1339 60.589 29.1339 61.9881 29.1339 63.3871 29.1339 " />
<polyline points="22.8149 -29.1339 24.214 -29.1339 25.613 -29.1339 27.012 -29.1339 28.4111 -29.1339 29.8101 -29.1339 31.2092 -29.1339 32.6082 -29.1339 34.0072 -29.1339 35.4063 -29.1339 36.8053 -29.1339 38.2044 -29.1339 39.6034 -29.1339 41.0025 -29.1339 42.4015 -29.1339 43.8005 -29.1339 45.1996 -29.1339 46.5986 -29.1339 47.9977 -29.1339 49.3967 -29.1339 50.7957 -29.1339 52.1948 -29.1339 53.5938 -29.1339 54.9929 -29.1339 56.3919 -29.1339 57.791 -29.1339 59.19 -29.1339 60.589 -29.1339 61.9881 -29.1339 63.3871 -29.1339 " />
<polyline points="22.8149 45.3628 24.214 45.3628 25.613 45.3628 27.012 45.3628 28.4111 45.3628 29.8101 45.3628 31.2092 45.3628 32.6082 45.3628 34.0072 45.3628 35.4063 45.3628 36.8053 45.3628 38.2044 45.3628 39.6034 45.3628 41.0025 45.3628 42.4015 45.3628 43.8005 45.3628 45.1996 45.3628 46.5986 45.3628 47.9977 45.3628 49.3967 45.3628 50.7957 45.3628 52.1948 45.3628 53.5938 45.3628 54.9929 45.3628 56.3919 45.3628 57.791 45.3628 59.19 45.3628 60.589 45.3628 61.9881 45.3628 63.3871 45.3628 " />
<polyline points="22.8149 -45.3628 24.214 -45.3628 25.613 -45.3628 27.012 -45.3628 28.4111 -45.3628 29.8101 -45.3628 31.2092 -45.3628 32.6082 -45.3628 34.0072 -45.3628 35.4063 -45.3628 36.8053 -45.3628 38.2044 -45.3628 39.6034 -45.3628 41.0025 -45.3628 42.4015 -45.3628 43.8005 -45.3628 45.1996 -45.3628 46.5986 -45.3628 47.9977 -45.3628 49.3967 -45.3628 50.7957 -45.3628 52.1948 -45.3628 53.5938 -45.3628 54.9929 -45.3628 56.3919 -45.3628 57.791 -45.3628 59.19 -45.3628 60.589 -45.3628 61.9881 -45.3628 63.3871 -45.3628 " />
</g>
<g>
<polyline points="147.246 27.3016 188.199 16.4991 188.199 0 188.199 16.4991 188.199 16.499 147.246 27.3016 147.246 15.883 171.818 0 " />
<polyline points="147.246 -27.3016 188.199 -16.4991 188.199 -0 188.199 -16.4991 188.199 -16.499 147.246 -27.3016 147.246 -15.883 171.818 -0 " />
</g>
<g>
<polyline points="108.75 37.3315 108.75 37.3315 108.75 37.3315 107.13 37.3075 105.51 37.2357 103.89 37.1169 102.27 36.9527 100.649 36.7448 99.0293 36.4957 97.4092 36.2084 95.7891 35.8862 94.169 35.5329 92.5489 35.1526 90.9288 34.7498 89.3087 34.3293 87.6886 33.8958 86.0685 33.4546 84.4484 33.0108 82.8283 32.5696 81.2082 32.1362 79.5881 31.7156 77.968 31.3128 76.3479 30.9325 74.7278 30.5792 73.1077 30.257 71.4876 29.9697 69.8675 29.7206 68.2474 29.5128 66.6273 29.3485 65.0072 29.2298 63.3871 29.158 63.3871 29.1339 63.3871 45.3628 63.3871 45.3628 65.0072 45.3691 66.6273 45.3878 68.2474 45.4188 69.8675 45.4616 71.4876 45.5158 73.1077 45.5807 74.7278 45.6556 76.3479 45.7396 77.968 45.8317 79.5881 45.9309 81.2082 46.0359 82.8283 46.1455 84.4484 46.2585 86.0685 46.3736 87.6886 46.4893 89.3087 46.6043 90.9288 46.7173 92.5489 46.8269 94.169 46.9319 95.7891 47.0311 97.4092 47.1232 99.0293 47.2072 100.649 47.2821 102.27 47.347 103.89 47.4012 105.51 47.4441 107.13 47.475 108.75 47.4937 108.75 47.5 108.75 37.3315 " />
<polyline points="108.75 -37.3315 108.75 -37.3315 108.75 -37.3315 107.13 -37.3075 105.51 -37.2357 103.89 -37.1169 102.27 -36.9527 100.649 -36.7448 99.0293 -36.4957 97.4092 -36.2084 95.7891 -35.8862 94.169 -35.5329 92.5489 -35.1526 90.9288 -34.7498 89.3087 -34.3293 87.6886 -33.8958 86.0685 -33.4546 84.4484 -33.0108 82.8283 -32.5696 81.2082 -32.1362 79.5881 -31.7156 77.968 -31.3128 76.3479 -30.9325 74.7278 -30.5792 73.1077 -30.257 71.4876 -29.9697 69.8675 -29.7206 68.2474 -29.5128 66.6273 -29.3485 65.0072 -29.2298 63.3871 -29.158 63.3871 -29.1339 63.3871 -45.3628 63.3871 -45.3628 65.0072 -45.3691 66.6273 -45.3878 68.2474 -45.4188 69.8675 -45.4616 71.4876 -45.5158 73.1077 -45.5807 74.7278 -45.6556 76.3479 -45.7396 77.968 -45.8317 79.5881 -45.9309 81.2082 -46.0359 82.8283 -46.1455 84.4484 -46.2585 86.0685 -46.3736 87.6886 -46.4893 89.3087 -46.6043 90.9288 -46.7173 92.5489 -46.8269 94.169 -46.9319 95.7891 -47.0311 97.4092 -47.1232 99.0293 -47.2072 100.649 -47.2821 102.27 -47.347 103.89 -47.4012 105.51 -47.4441 107.13 -47.475 108.75 -47.4937 108.75 -47.5 108.75 -37.3315 " />
<line x1="108.75" y1="37.3315" x2="188.199" y2="16.4991"  />
<line x1="108.75" y1="-37.3315" x2="188.199" y2="-16.4991"  />
</g>
<g>
<polyline style="stroke-width: .7px;" points="22.8149 2.94594 127.059 2.94594 133.48 15.883 " />
<polyline style="stroke-width: .7px;" points="22.8149 -2.94594 127.059 -2.94594 133.48 -15.883 " />
</g>
<g>
<polyline style="stroke-width: .7px;" points="85.0357 11.0911 89.338 3.27607 116.951 3.27607 " />
<polyline style="stroke-width: .7px;" points="85.0357 -11.0911 89.338 -3.27607 116.951 -3.27607 " />
</g>
<g>
<polyline points="0 48.0282 -6.26455 48.0282 -48.0282 40.8048 -49.5861 40.8835 -51.1439 41.1299 -52.7018 41.5837 -54.2596 42.3626 -55.8175 44.6994 " />
<polyline points="-57.2549 -45.4181 -55.4096 -42.6501 -53.5643 -41.7275 -51.7189 -41.1899 -49.8736 -40.898 -48.0282 -40.8048 -6.26455 -48.0282 0 -48.0282 " />
<polyline points="-55.8175 44.6994 -55.409 46.1744 -55.0006 46.7828 -54.5921 47.2484 -53.3668 48.2907 -51.733 49.3114 -14.9726 56.0282 20 56.0282 108.75 47.5 " />
<polyline points="-57.2549 -45.4181 -56.438 -47.3693 -56.0296 -47.8054 -54.8042 -48.7815 -53.1704 -49.7375 -16.4101 -56.0282 -16.4101 -56.0282 20 -56.0282 108.75 -47.5 " />
<path d="M 0 -19.2113 A 23.0536 23.0536 0 0 0 0 19.2113
" />
</g>
<g transform="rotate(45,63.0183,0)" >
<circle style="stroke: green;" cx="63.0183" cy="0" r="0.981815"/>
<line x1="63.0183" y1="-0.981815" x2="63.0183" y2="0.981815" style="stroke: green;"  />
<line x1="62.0365" y1="0" x2="64.0001" y2="0" style="stroke: green;"  />
</g></g></svg>
